<svg xmlns="http://www.w3.org/2000/svg" xmlns:xlink="http://www.w3.org/1999/xlink" width="597" height="614"><defs><path id="a" d="M941.24 1897.55a57.43 57.43 0 0 1-34.93-11.8L794.9 1968.7a103.14 103.14 0 0 1 3.63 27.12c0 19.53-5.44 37.8-14.89 53.4l95.42 79.14a57.4 57.4 0 0 1 32.48-10.04 57.83 57.83 0 0 1 57.75 57.78 57.83 57.83 0 0 1-57.75 57.77 57.83 57.83 0 0 1-57.75-57.77c0-8.21 1.73-16.02 4.83-23.1l-95.6-79.29a103.03 103.03 0 0 1-51.13 24.1v107.9a57.86 57.86 0 0 1 41.74 55.5 57.83 57.83 0 0 1-57.75 57.76 57.83 57.83 0 0 1-57.75-57.77 57.86 57.86 0 0 1 41.75-55.5v-107.65c-22-3.29-41.76-13.55-56.96-28.45l-109.09 81.23a57.5 57.5 0 0 1 3.69 20.3 57.83 57.83 0 0 1-57.75 57.77 57.83 57.83 0 0 1-57.75-57.77 57.83 57.83 0 0 1 57.75-57.78c13.11 0 25.22 4.4 34.93 11.8l109.08-81.22a102.74 102.74 0 0 1-11.9-48.1c0-15.94 3.62-31.03 10.08-44.52l-94.9-78.72a57.41 57.41 0 0 1-32.49 10.04 57.83 57.83 0 0 1-57.74-57.78 57.83 57.83 0 0 1 57.74-57.77 57.83 57.83 0 0 1 57.76 57.77c0 8.21-1.73 16.02-4.83 23.1l92.68 76.87a103.2 103.2 0 0 1 59.02-31.12v-103.42a57.86 57.86 0 0 1-41.75-55.5 57.83 57.83 0 0 1 57.75-57.77 57.83 57.83 0 0 1 57.75 57.77 57.86 57.86 0 0 1-41.74 55.5v103.42a103.52 103.52 0 0 1 70.16 45.15l105.82-78.8a57.5 57.5 0 0 1-3.69-20.29 57.83 57.83 0 0 1 57.75-57.77 57.83 57.83 0 0 1 57.75 57.77 57.83 57.83 0 0 1-57.75 57.78zm-29.7 304.3a25.77 25.77 0 0 0 25.73-25.74 25.77 25.77 0 0 0-25.74-25.75 25.78 25.78 0 0 0-25.74 25.75 25.78 25.78 0 0 0 25.74 25.75zm-431.14-46.02c0-.02-.02-.03-.03-.04l-.03-.05a25.7 25.7 0 0 0-46.32 15.4 25.77 25.77 0 0 0 25.74 25.75 25.78 25.78 0 0 0 25.74-25.75c0-5.74-1.91-11.03-5.1-15.31zm189.73 105.38a25.77 25.77 0 0 0 25.74 25.75 25.78 25.78 0 0 0 25.74-25.75 25.78 25.78 0 0 0-25.74-25.75 25.77 25.77 0 0 0-25.74 25.75zm-195.57-462.1a25.77 25.77 0 0 0-25.73 25.75 25.77 25.77 0 0 0 25.73 25.75 25.78 25.78 0 0 0 25.75-25.75 25.78 25.78 0 0 0-25.75-25.75zm246.37-64.32a25.77 25.77 0 0 0-25.74-25.75 25.78 25.78 0 0 0-25.74 25.75 25.78 25.78 0 0 0 25.74 25.75 25.77 25.77 0 0 0 25.74-25.75zm41.1 236.17a15.9 15.9 0 0 1-1.65-4.02c-11.11-24.98-36.14-42.45-65.2-42.45-39.32 0-71.3 32-71.3 71.34s31.98 71.35 71.3 71.35c39.33 0 71.33-32 71.33-71.35a71 71 0 0 0-4.48-24.87zm179.21-156.94a25.78 25.78 0 0 0-25.74 25.75c0 5.74 1.91 11.02 5.1 15.3 0 .02.02.04.03.05 0 .02.02.03.03.04a25.7 25.7 0 0 0 46.32-15.39 25.77 25.77 0 0 0-25.74-25.75z"/></defs><use fill="#202242" xlink:href="#a" opacity=".03" transform="translate(-402 -1677)"/></svg>