<svg xmlns="http://www.w3.org/2000/svg" xmlns:xlink="http://www.w3.org/1999/xlink" width="35" height="34"><defs><path id="a" d="M943.38 1280.24a8.46 8.46 0 0 1 6.86 13.37l-.82 1.17-1.17.83a8.33 8.33 0 0 1-4.87 1.57 8.46 8.46 0 0 1-8.43-8.47 8.46 8.46 0 0 1 8.43-8.47c4.65 0 0 0 0 0zm-12.65 8.47c0 7.02 5.66 12.7 12.65 12.7 2.73 0 5.25-.87 7.31-2.35l10.16 10.2a2.1 2.1 0 0 0 2.98 0c.83-.82.83-2.16 0-3l-10.15-10.2a12.68 12.68 0 0 0-10.3-20.06 12.68 12.68 0 0 0-12.65 12.71z"/></defs><use fill="#f1fbff" xlink:href="#a" transform="translate(-930 -1276)"/></svg>