<svg xmlns="http://www.w3.org/2000/svg" xmlns:xlink="http://www.w3.org/1999/xlink" width="34" height="34"><defs><path id="a" d="M359.8 1281.1l-13.07 12.59v3.5h3.5l12.6-13.07zm.03-5.1c.54 0 1.08.21 1.5.62l5.98 5.98c.82.82.82 2.16 0 2.99l-15.28 15.83h-9.54v-9.53l15.85-15.27c.4-.41.95-.62 1.5-.62zm3.86 23.3a2.12 2.12 0 0 1 4.24 0v8.47c0 1.17-.95 2.12-2.12 2.12h-29.68a2.12 2.12 0 0 1-2.12-2.12v-29.65c0-1.17.95-2.12 2.12-2.12h8.48a2.12 2.12 0 1 1 0 4.24h-5.3c-.59 0-1.06.47-1.06 1.06v23.3c0 .58.47 1.05 1.06 1.05h23.32c.58 0 1.06-.47 1.06-1.05z"/></defs><use fill="#fff" xlink:href="#a" transform="translate(-334 -1276)"/></svg>