<svg xmlns="http://www.w3.org/2000/svg" viewBox="0 0 512 512"><path d="M438.263 279.684c-74.506 0-134.904-26.376-134.904-58.911 0-32.536 60.398-58.914 134.904-58.914 23.818 0 46.182 2.705 65.606 7.436-40.098-44.961-131.094-76.355-236.95-76.355C123.983 92.94 8.11 150.172 8.11 220.773c0 70.6 115.873 127.832 258.809 127.832 105.857 0 196.857-31.394 236.95-76.358-19.423 4.731-41.785 7.437-65.606 7.437z" fill="#e95353"/><ellipse cx="206.912" cy="215.663" rx="46.919" ry="24.474" fill="#c13636"/><path d="M79.222 379.247c47.156 24.528 113.812 39.819 187.697 39.819 105.857 0 196.857-31.395 236.95-76.358v-70.46c-40.093 44.964-131.094 76.358-236.95 76.358-142.936 0-258.809-57.233-258.809-127.832v70.459c0 27.917 18.119 53.743 48.863 74.768" fill="#494f63"/><path d="M488.561 166.102c-15.544-2.732-32.513-4.244-50.299-4.244-74.506 0-134.904 26.379-134.904 58.914 0 11.263 7.248 21.784 19.802 30.732 23.716-16.902 66.391-28.18 115.102-28.18 23.818 0 46.182 2.705 65.606 7.437v-61.466l-15.307-3.193z" fill="#c13636"/><path d="M330.161 220.773c0-30.558 53.279-55.683 121.484-58.625-4.401-.19-8.864-.29-13.381-.29-74.506 0-134.904 26.379-134.904 58.914 0 11.263 7.248 21.784 19.802 30.732 4.692-3.343 10.135-6.463 16.211-9.322-5.938-6.636-9.212-13.854-9.212-21.409zM104.754 379.247l-22.249-13.246c-30.744-21.024-48.863-46.851-48.863-74.768V276.16C17.301 259.4 8.11 240.62 8.11 220.773v70.459c0 27.917 18.119 53.743 48.863 74.768l22.249 13.246c47.156 24.528 113.812 39.819 187.697 39.819 4.27 0 8.512-.058 12.73-.159-68.761-1.654-130.479-16.558-174.895-39.659z" fill="#202020" opacity=".15"/><g fill="#202020"><path d="M206.912 183.075c-31.369 0-55.026 14.008-55.026 32.583 0 18.576 23.656 32.584 55.026 32.584s55.025-14.008 55.025-32.584c-.001-18.576-23.657-32.583-55.025-32.583zm0 48.945c-23.688 0-38.806-9.692-38.806-16.364 0-6.672 15.117-16.363 38.806-16.363s38.806 9.691 38.806 16.363c0 6.672-15.118 16.364-38.806 16.364z"/><path d="M501.949 238.642a8.11 8.11 0 0 0 10.029-7.88v-61.044c.008-.142.022-.281.022-.424a8.087 8.087 0 0 0-2.421-5.781c-43.003-47.812-138.16-78.685-242.66-78.685-70.352 0-136.62 13.594-186.597 38.279C28.525 148.694 0 183.377 0 220.773v70.459c0 29.852 18.118 58.021 52.395 81.462a8.108 8.108 0 0 0 11.272-2.116 8.11 8.11 0 0 0-2.116-11.272c-20.679-14.143-45.33-37.432-45.33-68.074v-23.078c.208.29.434.574.644.863.567.775 1.138 1.55 1.732 2.318.317.411.649.819.974 1.227.557.701 1.119 1.4 1.699 2.096.359.429.727.856 1.094 1.285a115.041 115.041 0 0 0 2.937 3.299c.609.66 1.231 1.317 1.861 1.972.405.422.813.843 1.228 1.263.659.666 1.334 1.329 2.016 1.991.41.398.816.797 1.235 1.193.743.703 1.506 1.401 2.274 2.098.38.344.75.691 1.135 1.034.953.847 1.931 1.688 2.922 2.524.22.186.43.374.652.559 1.231 1.028 2.49 2.05 3.777 3.062.265.209.543.413.81.621 1.018.79 2.045 1.579 3.096 2.359.462.343.939.681 1.407 1.022.879.64 1.761 1.278 2.663 1.911.542.381 1.095.756 1.646 1.134a195.46 195.46 0 0 0 2.595 1.754 211.435 211.435 0 0 0 4.415 2.843 208.262 208.262 0 0 0 4.601 2.805c.631.374 1.262.749 1.902 1.121.961.558 1.939 1.109 2.92 1.661.62.348 1.235.699 1.862 1.043 1.09.599 2.202 1.192 3.315 1.782.54.285 1.068.575 1.612.859 1.668.869 3.36 1.73 5.08 2.58 49.977 24.685 116.245 38.279 186.597 38.279 2.738 0 5.467-.026 8.191-.068l.959-.013c2.587-.044 5.167-.111 7.739-.194.433-.014.864-.027 1.295-.042a524.93 524.93 0 0 0 7.576-.316l1.285-.065c2.551-.131 5.094-.278 7.628-.445l.961-.067c2.658-.181 5.307-.376 7.945-.597l.069-.007c2.64-.221 5.267-.465 7.885-.726l.861-.084c2.507-.253 5-.528 7.485-.816l1.196-.139c2.44-.29 4.867-.597 7.285-.92l1.207-.163c2.444-.333 4.877-.681 7.297-1.049.302-.045.602-.094.904-.141 2.535-.39 5.058-.794 7.564-1.221l.069-.012a442.75 442.75 0 0 0 7.528-1.352c.235-.044.471-.086.706-.131 2.388-.452 4.759-.923 7.117-1.408.357-.074.715-.146 1.071-.221a453.611 453.611 0 0 0 7.969-1.738 426.77 426.77 0 0 0 6.853-1.618l.816-.203c2.367-.586 4.72-1.185 7.05-1.805l.095-.026a387.187 387.187 0 0 0 6.996-1.935c.191-.054.383-.107.574-.162a381.243 381.243 0 0 0 6.604-1.966c.313-.096.626-.191.938-.288a375.131 375.131 0 0 0 7.314-2.35 358.414 358.414 0 0 0 6.235-2.137l.774-.277a334.86 334.86 0 0 0 6.515-2.392c2.109-.8 4.191-1.618 6.253-2.45l.491-.196a313.57 313.57 0 0 0 5.907-2.471l.845-.362c1.891-.82 3.759-1.654 5.606-2.501.3-.137.597-.275.894-.413a283.277 283.277 0 0 0 5.474-2.604c.242-.119.482-.239.723-.359 1.86-.918 3.699-1.848 5.507-2.794l.241-.128c1.811-.95 3.593-1.916 5.349-2.895.142-.079.287-.157.428-.237 1.715-.96 3.399-1.936 5.06-2.921l.749-.444a211.034 211.034 0 0 0 5.548-3.438c1.545-.99 3.068-1.991 4.56-3.005.226-.154.449-.308.673-.463a192.29 192.29 0 0 0 4.52-3.189c.103-.075.202-.151.304-.226a176.987 176.987 0 0 0 4.299-3.253l.386-.298a164.385 164.385 0 0 0 4.066-3.307c.131-.11.27-.216.401-.327v48.21c-40.89 43.456-130.159 71.4-228.84 71.4-69.371 0-136.42-14.179-183.954-38.904a8.11 8.11 0 1 0-7.485 14.389c50.502 26.269 118.49 40.735 191.439 40.735 104.786 0 200.171-31.037 243.004-79.071a8.103 8.103 0 0 0 2.057-5.397v-70.46c0-.087-.017-.169-.019-.255a8.303 8.303 0 0 0-.047-.61 7.723 7.723 0 0 0-.092-.646 7.56 7.56 0 0 0-.133-.569 7.525 7.525 0 0 0-.409-1.171 7.707 7.707 0 0 0-.319-.644c-.051-.092-.084-.189-.138-.279-.04-.067-.093-.123-.135-.189a8.21 8.21 0 0 0-.425-.593c-.11-.143-.22-.287-.338-.42a8.572 8.572 0 0 0-.503-.506c-.13-.123-.256-.249-.394-.362a8.166 8.166 0 0 0-.582-.424c-.145-.099-.284-.203-.435-.293-.205-.122-.424-.224-.641-.329-.161-.078-.318-.161-.483-.228-.045-.018-.084-.044-.13-.062-.182-.069-.37-.108-.554-.163-.173-.052-.342-.112-.518-.152-.242-.056-.486-.085-.73-.119-.17-.023-.337-.056-.508-.069-.269-.019-.537-.01-.805-.002-.149.004-.297-.005-.448.008a8.167 8.167 0 0 0-1.195.19c-.016.004-.032.004-.049.008-19.358 4.715-41.381 7.207-63.687 7.207-34.942 0-67.667-5.887-92.146-16.577a121.935 121.935 0 0 1-7.324-3.485c24.203-12.54 60.833-20.077 99.47-20.077 22.308.007 44.331 2.499 63.683 7.214zm-6.189-17.973c-18-3.58-37.665-5.454-57.496-5.454-45.901 0-88.153 9.763-114.742 26.313-3.484-2.955-6.859-6.514-9.146-10.543-.023-.04-.042-.079-.064-.119a26.743 26.743 0 0 1-.581-1.096c-.095-.191-.183-.384-.273-.576a28.165 28.165 0 0 1-.301-.664 23.075 23.075 0 0 1-.506-1.284c-.08-.224-.162-.448-.235-.672a19.085 19.085 0 0 1-.228-.775 20.35 20.35 0 0 1-.414-1.766c-.032-.174-.056-.347-.083-.52a18.354 18.354 0 0 1-.162-1.366 17.904 17.904 0 0 1-.059-1.374c0-1.131.11-2.264.327-3.399.01-.046.021-.093.03-.141 2.185-10.99 14.408-22.004 34.291-30.687 22.95-10.022 53.146-15.823 85.622-16.51 2.165-.045 4.34-.068 6.524-.068a310.054 310.054 0 0 1 7.175.092c1.405.034 2.805.078 4.203.13a323.518 323.518 0 0 1 8.839.466c.679.045 1.356.098 2.034.149 1.832.137 3.655.291 5.469.462.533.05 1.067.098 1.599.151 1.072.107 2.141.221 3.206.34.623.069 1.242.145 1.863.218 1.554.184 3.098.381 4.633.589.886.121 1.772.242 2.652.372a257.477 257.477 0 0 1 6.375 1.012c.283.049.568.095.85.145l8.598 1.794v44.781zm-57.497 67.125c13.228 0 26.383-.835 39.021-2.452l-.399.293c-1.3.957-2.619 1.906-3.971 2.843l-.102.069a180.678 180.678 0 0 1-4.09 2.741c-.225.146-.447.294-.672.439a193.089 193.089 0 0 1-4.969 3.103c-1.428.864-2.875 1.72-4.349 2.563-.178.102-.359.202-.537.303a223.348 223.348 0 0 1-4.377 2.423c-.173.093-.343.188-.517.281a238.645 238.645 0 0 1-5.562 2.88 248.145 248.145 0 0 1-4.736 2.316c-.27.129-.543.255-.814.383a263.668 263.668 0 0 1-5.042 2.318c-.023.01-.044.021-.067.03a287.62 287.62 0 0 1-5.213 2.254c-.296.124-.591.251-.889.375-1.691.706-3.402 1.4-5.13 2.084l-1.002.394a312.434 312.434 0 0 1-5.354 2.043c-.178.066-.359.131-.538.196a312.06 312.06 0 0 1-5.316 1.903c-.241.084-.479.17-.721.253a330.596 330.596 0 0 1-6.642 2.218 356.56 356.56 0 0 1-5.624 1.767l-.901.271c-1.909.576-3.83 1.142-5.771 1.693l-.306.089a394.154 394.154 0 0 1-6.009 1.644c-.358.095-.716.191-1.075.285a399.137 399.137 0 0 1-5.917 1.505l-1.128.275c-2.046.497-4.102.985-6.175 1.454-.148.034-.298.066-.448.099-2.022.456-4.059.897-6.107 1.328l-.915.194a433.04 433.04 0 0 1-7.464 1.481c-2.1.398-4.212.785-6.336 1.156l-.915.157c-2.1.362-4.21.713-6.331 1.048l-.534.086c-2.185.343-4.386.668-6.594.982l-1.228.174c-2.16.302-4.331.59-6.511.864-.397.05-.796.098-1.194.147-2.262.279-4.532.546-6.815.795l-.274.028c-2.243.242-4.498.467-6.759.68l-1.086.103c-2.232.205-4.473.395-6.723.571-.443.035-.887.068-1.331.102-2.272.172-4.55.332-6.837.474l-.881.052c-2.23.135-4.465.255-6.709.361-.252.012-.503.026-.756.037-2.318.106-4.645.194-6.977.268l-1.335.042c-2.299.068-4.603.122-6.915.159-.4.007-.8.011-1.2.016-2.419.034-4.841.056-7.272.056-67.91 0-131.627-12.999-179.414-36.603a232.459 232.459 0 0 1-16.261-8.824c-34.738-20.743-54.016-45.95-54.971-72.243a8.067 8.067 0 0 0 3.787.941h112.891c4.48 0 8.11-3.63 8.11-8.11 0-4.48-3.63-8.11-8.11-8.11H20.063c-.816 0-1.603.123-2.345.347 6.018-26.148 30.258-50.715 69.791-70.242 47.787-23.603 111.504-36.603 179.414-36.603 85.748 0 164.389 21.099 210.359 55.141-1.41-.181-2.832-.34-4.253-.501l-.566-.067a320.284 320.284 0 0 0-5.427-.549c-1.309-.121-2.62-.238-3.937-.343-.435-.035-.872-.064-1.307-.096-2.151-.161-4.31-.301-6.479-.416-.902-.049-1.803-.101-2.708-.142-.906-.041-1.814-.074-2.723-.107-1.187-.044-2.375-.08-3.565-.111-.726-.018-1.449-.038-2.177-.051a310.573 310.573 0 0 0-5.875-.061c-37.126 0-72.156 6.369-98.638 17.934-21.867 9.549-36.215 21.983-41.773 35.864h-17.833c-4.48 0-8.11 3.63-8.11 8.11s3.63 8.11 8.11 8.11h15.369c.055.635.125 1.268.215 1.899.011.077.018.154.03.23.119.796.268 1.586.442 2.375.015.068.032.135.048.203.175.771.376 1.539.603 2.303l.021.072c2.229 7.427 6.93 14.478 13.912 20.95l.025.023a74.914 74.914 0 0 0 4.905 4.153l.213.165c6.504 5.025 14.471 9.638 23.822 13.721 26.48 11.574 61.511 17.942 98.637 17.942z"/></g></svg>