<svg xmlns="http://www.w3.org/2000/svg" viewBox="0 0 436.903 436.903"><path d="M115.593 252s67.376 64.57 78.799 153.052h73.392s19.019-148.018 86.197-181.932l-42.044-6.665s-48.408 62.751-55.557 91.491L239.382 198.96l-24.453 1.732-4.608 110.455s-46.479-70.97-78.597-77.061C99.605 227.996 115.593 252 115.593 252z" fill="#84d839"/><path d="M267.783 411.879H194.39a6.828 6.828 0 0 1-6.774-5.953c-10.96-84.946-76.093-148.367-76.754-149.001a6.829 6.829 0 0 1-.954-1.14c-1.507-2.266-8.733-14-2.886-22.827 6.193-9.347 21.081-6.506 25.974-5.581 24.76 4.7 54.9 41.033 71.347 63.326l3.767-90.3a6.822 6.822 0 0 1 6.34-6.519l24.453-1.734c3.507-.374 6.68 2.253 7.226 5.753l13.3 85.28c16.247-30.759 45.527-68.867 47.101-70.9 1.527-1.973 4.04-2.987 6.473-2.574l42.047 6.666a6.827 6.827 0 0 1 5.68 5.687 6.831 6.831 0 0 1-3.673 7.148c-63.213 31.915-82.321 175.268-82.5 176.713a6.833 6.833 0 0 1-6.774 5.956zm-67.473-13.653h61.559c4.033-26.26 22.813-129.399 73.694-171.114l-20.659-3.28c-9.807 13.034-46.066 62.314-51.893 85.76-.787 3.154-3.459 5.386-6.932 5.173a6.835 6.835 0 0 1-6.439-5.767l-16.034-102.787-12.107.86-4.354 104.359a6.821 6.821 0 0 1-5.007 6.294c-2.854.807-5.9-.353-7.526-2.84-12.493-19.067-50.173-69.54-74.16-74.093-9.713-1.833-12.126-.174-12.153-.154-.186.874 1.046 4.427 2.62 7.02 7.098 6.982 66.265 67.268 79.391 150.569z"/><path d="M141.959 263.341c-7.835 1.625-15.623-.742-21.275-5.726-3.087 6.796-9.213 12.049-17.05 13.674-10.667 2.212-21.243-2.975-26.47-12.088-3.739 5.391-9.445 9.395-16.364 10.831-14.551 3.017-28.952-6.482-32.162-21.217a27.54 27.54 0 0 1-.461-9.013c-9.955-1.463-18.493-9.039-20.78-19.54-2.115-9.706 1.69-19.246 8.977-24.81a27.695 27.695 0 0 1-7.323-13.559c-3.07-14.089 5.199-27.861 18.647-31.683a25.377 25.377 0 0 1-1.565-4.818c-2.918-13.396 5.439-26.479 18.668-29.223-.176-1.599-.695-3.188-1.056-4.85-2.918-13.396 5.439-26.479 18.668-29.223 7.835-1.625 15.623.742 21.275 5.726 3.086-6.796 9.213-12.049 17.05-13.674 13.228-2.743 26.319 5.893 29.237 19.289.362 1.662.551 3.321.579 4.956 13.708-2.847 26.798 5.787 29.716 19.185a25.24 25.24 0 0 1 .579 5.021c13.879-1.847 27.175 7.455 30.244 21.543 1.159 5.315.703 10.585-1.036 15.293 8.977 2.191 16.43 9.399 18.545 19.103 2.287 10.501-2.353 20.809-10.837 26.097a27.783 27.783 0 0 1 3.337 8.416c3.21 14.735-5.984 29.128-20.535 32.145-6.919 1.435-13.802.041-19.465-3.401-.977 10.4-8.476 19.334-19.143 21.546z" fill="#9bfc1d"/><path d="M98.656 278.626c-8.18 0-16.034-3.227-21.914-8.933a33.22 33.22 0 0 1-14.553 7.026c-18.193 3.734-36.221-8.1-40.219-26.453a34.459 34.459 0 0 1-.727-5.193c-10.213-3.64-18.14-12.447-20.519-23.361-2.087-9.593.42-19.521 6.473-26.841a34.502 34.502 0 0 1-4.813-11.527c-3.287-15.087 3.973-30.167 16.954-37.086-1.613-8.166-.039-16.433 4.453-23.354 3.253-5.001 7.76-8.873 13.053-11.279-1.44-7.98.16-16.02 4.553-22.781 4.526-6.98 11.5-11.747 19.627-13.433 7.113-1.466 14.339-.461 20.654 2.813 4.446-5.453 10.68-9.313 17.673-10.767 16.521-3.379 32.947 7.093 37.067 23.554 14.406.22 26.999 10.02 30.413 24.627 14.734 1.113 27.653 11.981 30.933 27.047a34.418 34.418 0 0 1 .406 12.486c8.579 4.267 15.014 12.327 17.106 21.914 2.374 10.919-1.186 22.113-8.987 29.534a33.884 33.884 0 0 1 1.48 4.994c1.959 8.98.307 18.147-4.659 25.793-4.879 7.52-12.401 12.66-21.159 14.473a33.43 33.43 0 0 1-16.174-.633c-3.794 9.492-12.052 16.626-22.434 18.78-7.134 1.459-14.346.44-20.647-2.813-4.453 5.453-10.687 9.313-17.679 10.761-2.12.439-4.253.652-6.361.652zm-21.492-26.254a6.815 6.815 0 0 1 5.921 3.434c3.92 6.827 11.621 10.341 19.166 8.793 5.446-1.126 9.9-4.7 12.22-9.807a6.812 6.812 0 0 1 4.787-3.854c2.113-.486 4.32.119 5.939 1.553 4.294 3.78 9.887 5.333 15.374 4.161h.007c7.487-1.546 13-7.774 13.72-15.493a6.835 6.835 0 0 1 3.734-5.466 6.782 6.782 0 0 1 6.607.266c4.413 2.673 9.573 3.581 14.534 2.546 5.173-1.067 9.607-4.099 12.486-8.54 2.966-4.56 3.946-10.054 2.773-15.461a20.808 20.808 0 0 0-2.521-6.354 6.828 6.828 0 0 1 2.246-9.313c6.253-3.9 9.38-11.474 7.774-18.847-1.48-6.82-6.781-12.286-13.493-13.926a6.845 6.845 0 0 1-4.407-3.427 6.819 6.819 0 0 1-.374-5.574c1.34-3.64 1.606-7.607.766-11.474-2.287-10.481-12.227-17.56-22.673-16.227a6.857 6.857 0 0 1-5.354-1.594 6.826 6.826 0 0 1-2.374-5.06c-.02-1.246-.16-2.48-.42-3.68-2.161-9.894-11.674-16.034-21.666-13.954a6.834 6.834 0 0 1-5.652-1.353 6.84 6.84 0 0 1-2.56-5.221 18.437 18.437 0 0 0-.42-3.62c-2.12-9.733-11.653-16.067-21.18-14.053-5.446 1.126-9.9 4.707-12.22 9.813a6.822 6.822 0 0 1-4.78 3.847 6.77 6.77 0 0 1-5.946-1.553c-4.287-3.78-9.894-5.313-15.38-4.154-4.533.94-8.421 3.599-10.953 7.494-2.599 4.014-3.466 8.834-2.427 13.587l.333 1.393c.353 1.393.679 2.773.84 4.154a6.832 6.832 0 0 1-5.4 7.446c-4.533.934-8.421 3.599-10.953 7.487-2.606 4.014-3.473 8.841-2.434 13.594a19.402 19.402 0 0 0 1.147 3.54 6.816 6.816 0 0 1-.08 5.647 6.823 6.823 0 0 1-4.306 3.654c-10.033 2.847-16.113 13.24-13.839 23.66a20.878 20.878 0 0 0 5.519 10.226 6.829 6.829 0 0 1 1.94 5.274 6.815 6.815 0 0 1-2.666 4.941c-5.393 4.113-7.927 11.146-6.446 17.927 1.613 7.427 7.68 13.153 15.101 14.24a6.823 6.823 0 0 1 5.787 7.526 21.082 21.082 0 0 0 .353 6.799c2.406 11.059 13.24 18.207 24.1 15.973a19.56 19.56 0 0 0 12.146-8.04 6.816 6.816 0 0 1 5.604-2.93z"/><path d="M61.811 218.912c-15.06 0-27.307-12.247-27.307-27.307 0-15.06 12.247-27.307 27.307-27.307 3.773 0 6.827 3.053 6.827 6.827s-3.053 6.827-6.827 6.827c-7.526 0-13.653 6.127-13.653 13.653 0 7.526 6.127 13.653 13.653 13.653 3.773 0 6.827 3.053 6.827 6.827s-3.054 6.827-6.827 6.827zm14.406-65.854a6.831 6.831 0 0 1-6.494-4.721c-2.253-6.932-1.667-14.333 1.64-20.833 3.313-6.501 8.953-11.32 15.894-13.573s14.346-1.673 20.833 1.64c6.501 3.313 11.32 8.96 13.573 15.899a6.827 6.827 0 0 1-12.986 4.214c-2.326-7.159-10.04-11.073-17.207-8.767-7.153 2.326-11.087 10.04-8.76 17.207 1.167 3.581-.8 7.433-4.386 8.6a6.787 6.787 0 0 1-2.107.334zm26.072 87.393a6.782 6.782 0 0 1-5.233-2.441c-4.693-5.586-6.927-12.667-6.287-19.934.633-7.267 4.06-13.846 9.646-18.533 5.586-4.686 12.667-6.927 19.934-6.287 7.267.633 13.846 4.06 18.533 9.646a6.82 6.82 0 0 1-.84 9.614 6.808 6.808 0 0 1-9.614-.84 13.581 13.581 0 0 0-9.267-4.82c-3.673-.333-7.18.8-9.974 3.14a13.581 13.581 0 0 0-4.82 9.267c-.321 3.64.8 7.18 3.14 9.974a6.82 6.82 0 0 1-.84 9.614 6.772 6.772 0 0 1-4.378 1.6z"/><path d="M427.353 180.918c-2.208 7.513-8.006 13.109-15.171 15.638 4.702 5.849 6.579 13.594 4.371 21.105-3.005 10.226-12.665 16.903-23.368 17.126 3.123 5.751 4.069 12.547 2.12 19.18-4.101 13.952-19.458 21.895-34.302 17.742a29.221 29.221 0 0 1-8.373-3.833c-5.997 7.888-16.862 11.686-27.44 8.728-9.776-2.734-16.626-10.491-18.241-19.381-4.936 1.364-10.356 1.44-15.71-.058-14.191-3.97-22.774-17.558-19.919-30.937a27.154 27.154 0 0 1-5.094-.913c-13.493-3.775-21.412-17.116-17.683-29.8-1.529-.599-3.212-.898-4.886-1.367-13.495-3.775-21.412-17.116-17.684-29.8 2.208-7.513 8.006-13.109 15.171-15.638-4.702-5.849-6.579-13.594-4.371-21.105 3.727-12.682 17.69-19.905 31.182-16.13a26.961 26.961 0 0 1 4.757 1.828c3.859-13.145 17.819-20.366 31.314-16.591a26.706 26.706 0 0 1 4.816 1.859c4.845-12.822 19.505-19.908 33.696-15.939 5.354 1.498 9.909 4.364 13.355 8.073 6.197-6.704 16.218-9.742 25.996-7.006 10.578 2.959 17.729 11.796 18.531 21.588a29.61 29.61 0 0 1 9.184 1.077c14.845 4.152 23.552 18.828 19.453 32.78-1.949 6.632-6.443 11.907-12.216 15.171 8.954 5.72 13.518 16.375 10.512 26.603z" fill="#9bfc1d"/><path d="M332.363 284.412c-2.993 0-6.026-.399-9.006-1.234-9.627-2.693-17.388-9.533-21.14-18.214-4.253.381-8.607-.053-12.807-1.227-15.101-4.227-25.267-17.533-25.453-31.98-8.373-2.454-15.234-7.88-19.354-15.314-2.773-5.007-4.053-10.52-3.773-16.02-8.113-2.521-14.773-7.873-18.801-15.153-3.934-7.086-4.854-15.206-2.599-22.854 1.966-6.707 6.313-12.5 12.14-16.461-2.787-6.393-3.319-13.559-1.353-20.28 4.707-15.973 22.019-25.247 38.774-20.994 7.013-12.346 21.787-18.599 36.567-14.633 7.939-12.167 23.76-18.22 38.82-13.993a36.075 36.075 0 0 1 11.587 5.613c7.854-5.434 18.127-7.247 27.767-4.547 10.919 3.053 19.326 11.373 22.361 21.586 1.807.227 3.593.587 5.354 1.08 9.247 2.587 16.833 8.506 21.354 16.66 4.233 7.641 5.233 16.381 2.807 24.62a31.998 31.998 0 0 1-8.026 13.559c6.733 7.74 9.26 18.22 6.333 28.206l-.007.007c-2.007 6.827-6.281 12.559-12.133 16.486 2.773 6.386 3.307 13.548 1.34 20.253-2.941 9.987-10.786 17.546-20.7 20.581a31.558 31.558 0 0 1-.56 15.727c-5.134 17.487-24.3 27.54-42.68 22.393a36.64 36.64 0 0 1-5.2-1.886c-5.871 5.172-13.624 8.019-21.612 8.019zm-25.414-34.019c1.273 0 2.533.353 3.627 1.046a6.837 6.837 0 0 1 3.092 4.56c1.193 6.586 6.439 12.093 13.36 14.034 7.6 2.106 15.686-.406 20.166-6.294 2.173-2.874 6.226-3.553 9.233-1.539a22.087 22.087 0 0 0 6.414 2.941c11.22 3.133 22.861-2.734 25.914-13.1 1.367-4.647.807-9.614-1.574-13.993a6.822 6.822 0 0 1 .101-6.687 6.831 6.831 0 0 1 5.76-3.4c8.047-.167 14.86-5.081 16.966-12.227 1.5-5.113.353-10.54-3.147-14.894a6.826 6.826 0 0 1 3.048-10.714c5.4-1.913 9.373-5.973 10.9-11.133 2.067-7.074-1-14.681-7.646-18.927a6.846 6.846 0 0 1-3.154-5.939 6.84 6.84 0 0 1 3.473-5.76c4.441-2.507 7.646-6.467 9.027-11.146 1.381-4.707.794-9.726-1.654-14.147-2.739-4.941-7.386-8.533-13.094-10.134-2.313-.647-4.707-.954-7.074-.833-3.613.259-6.781-2.613-7.079-6.267-.587-7.207-6.033-13.46-13.559-15.567-6.973-1.966-14.493.034-19.14 5.067a6.813 6.813 0 0 1-5.001 2.193h-.014a6.83 6.83 0 0 1-5.001-2.179c-2.707-2.913-6.233-5.033-10.201-6.147-10.639-2.973-21.854 2.193-25.467 11.779a6.816 6.816 0 0 1-3.913 3.946 6.774 6.774 0 0 1-5.547-.266 20.074 20.074 0 0 0-3.581-1.381c-10.04-2.807-20.14 2.434-22.927 11.94a6.823 6.823 0 0 1-3.833 4.34 6.792 6.792 0 0 1-5.787-.16 20.708 20.708 0 0 0-3.546-1.367c-9.853-2.746-20.093 2.4-22.781 11.493-1.5 5.113-.353 10.54 3.147 14.894a6.824 6.824 0 0 1-3.048 10.714c-5.407 1.913-9.373 5.967-10.887 11.133-1.213 4.12-.7 8.513 1.44 12.38 2.406 4.347 6.501 7.513 11.527 8.921l1.521.387c1.386.346 2.746.7 4.026 1.2a6.827 6.827 0 0 1 4.047 8.281c-1.207 4.113-.693 8.513 1.454 12.387 2.406 4.34 6.501 7.506 11.527 8.914 1.266.353 2.54.58 3.787.679a6.827 6.827 0 0 1 6.141 8.234c-2.113 9.9 4.514 19.98 15.087 22.939 3.98 1.106 8.146 1.133 12.047.046a6.72 6.72 0 0 1 1.823-.247zm120.408-69.474h.067-.067z"/><path d="M343.863 146.045a6.822 6.822 0 0 1-6.141-3.833c-3.2-6.554-3.654-13.961-1.28-20.861 2.374-6.9 7.293-12.454 13.846-15.654 13.559-6.607 29.913-.959 36.514 12.573a6.825 6.825 0 0 1-3.14 9.127c-3.407 1.679-7.48.247-9.127-3.14-3.308-6.774-11.5-9.58-18.26-6.287a13.569 13.569 0 0 0-6.927 7.827 13.548 13.548 0 0 0 .64 10.426 6.825 6.825 0 0 1-3.14 9.127 6.718 6.718 0 0 1-2.985.695zm43.568 57.74a6.83 6.83 0 0 1-5.721-10.547 13.553 13.553 0 0 0 1.906-10.274 13.552 13.552 0 0 0-5.92-8.614c-6.327-4.106-14.787-2.313-18.886 4.014a6.821 6.821 0 0 1-9.446 2.007 6.83 6.83 0 0 1-2.007-9.446c3.973-6.113 10.093-10.32 17.227-11.834 7.134-1.527 14.426-.16 20.553 3.806 6.113 3.973 10.32 10.093 11.834 17.227 1.521 7.134.167 14.433-3.806 20.553a6.828 6.828 0 0 1-5.734 3.108z"/><path d="M213.453 227.185c-7.427-2.927-12.525-9.138-14.356-16.353-6.455 3.951-14.544 4.963-21.972 2.034-10.11-3.985-15.906-14.054-15.015-24.462-6.19 2.429-13.216 2.637-19.773.051-13.793-5.437-20.285-21.168-14.502-35.135a28.003 28.003 0 0 1 4.784-7.723c-7.415-6.644-10.151-17.582-6.028-27.535 3.809-9.199 12.433-15.034 21.664-15.671-.874-4.931-.386-10.199 1.702-15.237 5.53-13.353 20.28-20.262 33.62-16.092a25.316 25.316 0 0 1 1.464-4.847c5.258-12.698 19.688-18.985 32.227-14.042.771-1.422 1.253-3.023 1.905-4.598 5.258-12.698 19.686-18.985 32.227-14.042 7.427 2.927 12.525 9.137 14.356 16.353 6.455-3.951 14.544-4.963 21.972-2.034 12.539 4.943 18.442 19.243 13.182 31.94a25.54 25.54 0 0 1-2.362 4.424c12.996 5.118 18.9 19.418 13.64 32.116a25.473 25.473 0 0 1-2.4 4.478c12.564 6.042 18.256 21.006 12.725 34.36a28.023 28.023 0 0 1-9.626 12.114c6.187 6.714 8.235 16.754 4.425 25.953-4.123 9.953-13.879 15.968-23.943 15.722a27.599 27.599 0 0 1-2.058 8.798c-5.786 13.967-21.656 20.883-35.449 15.447-6.557-2.584-11.465-7.496-14.188-13.438-6.77 8.088-18.109 11.405-28.221 7.419z" fill="#84d839"/><path d="M265.57 241.871a33.2 33.2 0 0 1-12.206-2.313c-5.147-2.033-9.62-5.26-13.1-9.387-8.561 5.82-19.494 7.226-29.307 3.367-6.634-2.613-12.087-7.467-15.514-13.594a31.044 31.044 0 0 1-20.82-.727c-9.847-3.886-16.72-12.307-18.787-22.287a33.48 33.48 0 0 1-16-2.12c-8.3-3.273-14.793-9.6-18.273-17.819-3.567-8.4-3.581-17.734-.034-26.286a35.278 35.278 0 0 1 2.333-4.647c-6.354-8.639-7.859-20.267-3.581-30.614 3.76-9.086 11.534-15.92 20.739-18.647.113-4.166.993-8.32 2.627-12.261 5.9-14.259 20.62-22.74 35.253-21.354 5.893-13.674 20.294-21.373 34.354-19.14 6.98-15.479 24.98-23.04 40.646-16.867 6.641 2.62 12.093 7.48 15.514 13.614 6.799-2.087 14.181-1.906 20.806.707 7.7 3.033 13.72 8.9 16.954 16.521 3.166 7.453 3.313 15.7.447 23.347a30.85 30.85 0 0 1 10.841 13.327c3.207 7.554 3.294 15.94.259 23.68 11.554 9.033 16.02 25.114 10.093 39.414a35.019 35.019 0 0 1-6.793 10.534c4.654 8.247 5.361 18.447 1.594 27.534-4.273 10.327-13.646 17.647-24.347 19.487a34.606 34.606 0 0 1-1.654 5.033c-5.524 13.332-18.517 21.498-32.044 21.498zm-23.894-28.933a6.826 6.826 0 0 1 6.207 3.987 19.219 19.219 0 0 0 10.487 9.926c10.293 4.053 22.267-1.179 26.633-11.706a20.828 20.828 0 0 0 1.553-6.634c.247-3.654 3.514-6.42 6.98-6.38.147.007.294.007.434.007 7.359 0 14.167-4.581 17.033-11.513 2.661-6.414 1.427-13.759-3.14-18.714a6.834 6.834 0 0 1-1.773-5.327 6.833 6.833 0 0 1 2.826-4.854 21.258 21.258 0 0 0 7.287-9.173c4.087-9.859-.034-21.1-9.38-25.593a6.832 6.832 0 0 1-3.627-4.367 6.798 6.798 0 0 1 .927-5.6 19.173 19.173 0 0 0 1.753-3.28c1.86-4.487 1.867-9.347.02-13.687-1.833-4.326-5.333-7.687-9.853-9.467a6.84 6.84 0 0 1-4.014-4.313 6.82 6.82 0 0 1 .84-5.833 19.014 19.014 0 0 0 1.72-3.22c1.881-4.54 1.886-9.453.02-13.846a16.83 16.83 0 0 0-9.387-9.146c-5.207-2.053-10.999-1.507-15.906 1.5a6.833 6.833 0 0 1-6.141.5 6.807 6.807 0 0 1-4.047-4.647c-1.367-5.393-5.093-9.646-10.233-11.674-9.079-3.593-19.587 1.033-23.421 10.3l-.527 1.367c-.507 1.353-1.027 2.666-1.693 3.886-1.647 3.033-5.313 4.34-8.494 3.087-9.107-3.581-19.593 1.039-23.421 10.3a18.157 18.157 0 0 0-1.06 3.526 6.848 6.848 0 0 1-3.207 4.567 6.775 6.775 0 0 1-5.533.654c-10.04-3.14-21.154 2.227-25.279 12.194-1.521 3.666-1.966 7.627-1.294 11.433a6.823 6.823 0 0 1-6.253 8.006c-6.927.473-13.133 4.973-15.821 11.467-2.893 6.98-1.174 14.961 4.28 19.847 2.78 2.487 3.04 6.753.587 9.566a20.988 20.988 0 0 0-3.613 5.833c-2.14 5.154-2.14 10.74-.02 15.741 2.046 4.82 5.847 8.533 10.713 10.447 4.707 1.867 9.96 1.84 14.773-.053a6.817 6.817 0 0 1 6.579.881 6.838 6.838 0 0 1 2.714 6.06c-.66 7.694 3.647 14.734 10.72 17.521 5.193 2.053 10.988 1.507 15.906-1.507a6.816 6.816 0 0 1 6.134-.493 6.817 6.817 0 0 1 4.04 4.64c1.374 5.4 5.113 9.66 10.247 11.68h.007c7.148 2.833 15.387.64 20.48-5.453a6.852 6.852 0 0 1 5.237-2.443zm100.308 43.041a6.819 6.819 0 0 1-6.714-5.641 6.817 6.817 0 0 1 5.533-7.907c7.414-1.314 12.38-8.407 11.073-15.826-1.307-7.407-8.414-12.407-15.821-11.066-3.721.626-7.253-1.833-7.907-5.547-.654-3.714 1.833-7.253 5.547-7.907 14.88-2.587 29.013 7.34 31.626 22.153 2.613 14.828-7.327 29.02-22.147 31.633a6.592 6.592 0 0 1-1.19.108z"/><path d="M223.857 182.205a6.822 6.822 0 0 1-6.526-8.827 13.555 13.555 0 0 0-1-10.4 13.563 13.563 0 0 0-8.061-6.647 13.625 13.625 0 0 0-10.407 1 13.577 13.577 0 0 0-6.647 8.067c-1.106 3.606-4.941 5.659-8.52 4.533-3.606-1.101-5.641-4.913-4.533-8.52 4.393-14.413 19.707-22.56 34.094-18.133 6.98 2.133 12.706 6.854 16.126 13.293 3.427 6.446 4.14 13.833 2 20.806a6.826 6.826 0 0 1-6.526 4.828zm48.34 3.633c-.954 0-1.906-.046-2.874-.154a6.823 6.823 0 0 1-6.074-7.501c.387-3.746 3.593-6.487 7.501-6.074 7.473.748 14.213-4.666 15.007-12.153a13.569 13.569 0 0 0-2.966-10.02 13.606 13.606 0 0 0-9.187-4.994 6.818 6.818 0 0 1-6.074-7.501c.393-3.753 3.813-6.526 7.501-6.074 7.26.759 13.78 4.306 18.374 9.974 4.588 5.666 6.694 12.786 5.927 20.04-1.469 14.011-13.349 24.457-27.135 24.457zm-74.614-55.786a6.813 6.813 0 0 1-5.313-2.533c-9.467-11.699-7.653-28.926 4.033-38.407 11.706-9.467 28.933-7.66 38.414 4.033a6.834 6.834 0 0 1-1.007 9.607 6.853 6.853 0 0 1-9.607-1.007c-4.739-5.847-13.353-6.76-19.207-2.021-5.84 4.733-6.746 13.353-2.014 19.207a6.82 6.82 0 0 1-1.014 9.6 6.798 6.798 0 0 1-4.285 1.521z"/></svg>