<svg xmlns="http://www.w3.org/2000/svg" width="52.188" height="50.28"><path d="M29.68 15.982a1.003 1.003 0 0 0 1.286.59 1 1 0 0 0 .59-1.284 2.905 2.905 0 0 1 1.713-3.729 2.904 2.904 0 0 1 3.729 1.713 1 1 0 0 0 1.876-.694 4.909 4.909 0 0 0-6.3-2.894 4.905 4.905 0 0 0-2.894 6.298zm17.03 23.869a1 1 0 0 0-1.327.491 2.878 2.878 0 0 1-1.628 1.51c-.727.27-1.515.24-2.22-.083a2.885 2.885 0 0 1-1.51-1.63 2.883 2.883 0 0 1 .085-2.22 1 1 0 0 0-1.818-.834 4.872 4.872 0 0 0-.142 3.749c.216.582.533 1.108.934 1.559.445.499.992.904 1.618 1.192a4.87 4.87 0 0 0 3.749.142 4.87 4.87 0 0 0 2.75-2.551 1 1 0 0 0-.492-1.325zm-7.215-12.279a1 1 0 0 0-1.27.624 2.885 2.885 0 0 1-1.466 1.667 2.887 2.887 0 0 1-2.217.142 2.887 2.887 0 0 1-1.667-1.467 2.887 2.887 0 0 1-.142-2.217.999.999 0 1 0-1.892-.645 4.904 4.904 0 0 0 6.799 5.984 4.869 4.869 0 0 0 2.478-2.817 1 1 0 0 0-.623-1.27zm-7.023-5.173a4.91 4.91 0 0 0 6.055 3.376 1.001 1.001 0 0 0-.547-1.924 2.906 2.906 0 0 1-3.584-1.999 2.906 2.906 0 0 1 1.998-3.584 1.001 1.001 0 0 0-.547-1.924 4.909 4.909 0 0 0-3.375 6.055zm-9.194-1.77a4.89 4.89 0 0 0 .996 1.74c.402.45.889.828 1.444 1.11a4.862 4.862 0 0 0 3.74.289 1 1 0 1 0-.62-1.901c-.737.24-1.524.18-2.215-.172a2.876 2.876 0 0 1-1.445-1.687 2.906 2.906 0 0 1 1.858-3.659 1 1 0 1 0-.62-1.901 4.91 4.91 0 0 0-3.138 6.18zm16.244 2.421a4.865 4.865 0 0 0 3.207 1.949 4.908 4.908 0 0 0 5.592-4.095 1 1 0 1 0-1.977-.306 2.904 2.904 0 0 1-3.311 2.424 2.853 2.853 0 0 1-1.898-1.154 2.882 2.882 0 0 1-.526-2.158 1 1 0 1 0-1.977-.306 4.87 4.87 0 0 0 .89 3.646zm-20.374-9.303a1 1 0 1 0-.671-1.885 2.904 2.904 0 0 1-3.707-1.76 2.906 2.906 0 0 1 1.76-3.708 1.001 1.001 0 0 0-.67-1.885 4.908 4.908 0 0 0-2.975 6.262 4.911 4.911 0 0 0 6.263 2.976z"/><path d="M49.109 43.1a5.18 5.18 0 0 0 3.072-4.492 5.308 5.308 0 0 0-1.377-3.84c.31-.59.487-1.242.52-1.923.088-1.796-.863-3.408-2.31-4.291.068-.057.144-.099.21-.157 2.912-2.593 3.139-7.109.506-10.066a7.182 7.182 0 0 0-1.715-1.413 6.08 6.08 0 0 0-1.518-4.5 6.057 6.057 0 0 0-4.782-2.03 6.82 6.82 0 0 0-1.488-2.729c-2.491-2.798-6.76-3.078-9.516-.624l-.03.026a6.752 6.752 0 0 0-3.32-.497c-.728-1.874-2.456-3.216-4.493-3.395C22.063 1.384 20.33.144 18.35.012a5.194 5.194 0 0 0-3.817 1.31 4.704 4.704 0 0 0-1.92-.553 4.6 4.6 0 0 0-3.395 1.158 4.607 4.607 0 0 0-1.544 3.24 4.684 4.684 0 0 0 .376 2.09 5.48 5.48 0 0 0-1.804 3.806 5.602 5.602 0 0 0 1.374 3.958 4.08 4.08 0 0 0-1.128 2.62 4.178 4.178 0 0 0 1.062 2.985c.267.3.587.547.93.76 2.649 3.148-.384 13.342-7.778 20.91a2.508 2.508 0 0 0-.075 3.41l3.325 3.734a2.51 2.51 0 0 0 3.323.38l.575-.41c10.39-7.417 17.154-9.619 20.132-6.568a5.663 5.663 0 0 0 1.26 2.47 5.622 5.622 0 0 0 3.824 1.883 5.47 5.47 0 0 0 1.553-.116 4.788 4.788 0 0 0 3.221 1.577 4.626 4.626 0 0 0 3.61-1.364 5.276 5.276 0 0 0 2.127.606 5.16 5.16 0 0 0 3.807-1.3A5.156 5.156 0 0 0 49.11 43.1zM30.396 9.146a1 1 0 0 0 1.247-.21 4.65 4.65 0 0 1 .4-.408c1.932-1.72 4.934-1.514 6.692.46a4.83 4.83 0 0 1 1.193 2.632 1.002 1.002 0 0 0 1.207.854 4.038 4.038 0 0 1 3.87 1.274 4.06 4.06 0 0 1 .945 3.52 1 1 0 0 0 .56 1.114 5.236 5.236 0 0 1 1.728 1.28c1.899 2.132 1.746 5.382-.343 7.24a4.915 4.915 0 0 1-1.768 1.003l-.008.001-.187.064-.01.004-.005.002c-.04.012-.07.038-.108.055-.081.035-.165.065-.233.118-.017.013-.026.032-.041.046a.988.988 0 0 0-.204.232c-.017.029-.02.063-.035.094-.038.082-.077.164-.093.254a.98.98 0 0 0 .012.383c.137.608-.046 1.206-.491 1.602-.448.399-1.09.509-1.677.291a1 1 0 0 0-1.313.67 3.103 3.103 0 0 1-.924 1.49c-.952.848-2.325 1.031-3.498.466a1 1 0 0 0-1.322.442 3.097 3.097 0 0 1-.69.894c-1.307 1.164-3.34 1.023-4.53-.316a3.158 3.158 0 0 1-.326-.444c-.021-.032-.039-.066-.058-.098a3.243 3.243 0 0 1-.3-2.605c.103-.33.029-.69-.196-.953a.978.978 0 0 0-.912-.336 5.148 5.148 0 0 1-2.855-.376 5.326 5.326 0 0 1-.384-.182c-.061-.033-.12-.07-.18-.106-.113-.067-.227-.133-.335-.208-.074-.051-.142-.11-.214-.165-.09-.07-.182-.136-.267-.211a5.536 5.536 0 0 1-.422-.419c-.1-.11-.192-.23-.282-.349-.029-.038-.061-.075-.09-.114a5.45 5.45 0 0 1-.264-.418c-.016-.027-.035-.054-.05-.082a5.334 5.334 0 0 1-.237-.488l-.02-.043a5.212 5.212 0 0 1-.197-.561 5.17 5.17 0 0 1-.093-2.553.999.999 0 0 0-.787-1.197 4.085 4.085 0 0 1-.907-.302c-.007-.003-.011-.01-.018-.012-.26-.12-.5-.26-.72-.419l-.023-.016a3.774 3.774 0 0 1-.599-.54c-1.475-1.657-1.356-4.176.264-5.618a3.85 3.85 0 0 1 2.234-.96.998.998 0 0 0 .902-1.127A4.669 4.669 0 0 1 24.94 9.68a4.57 4.57 0 0 1 .539-.408c.048-.032.098-.06.147-.089a4.76 4.76 0 0 1 .452-.24c.055-.024.108-.05.164-.073.172-.07.348-.13.527-.18.035-.01.069-.024.105-.032a4.758 4.758 0 0 1 3.523.487zm-4.233 22.877c.577.17 1.172.276 1.78.295a5.266 5.266 0 0 0 .242 1.72c-.008.046-.015.09-.019.145-.011.23-.002.461.025.69-1.898.034-3.898.333-5.73.741a35.843 35.843 0 0 0 3.702-3.59zm-12.175 2.15c1.751-3.787 2.42-7.208 2.664-9.639.318.143.66.236 1.017.26a2.948 2.948 0 0 0 2.1-.692c.244.088.52.15.797.209.141.064.281.132.428.186a7.208 7.208 0 0 0 .144 2.129c-1.795 2.666-4.73 5.469-7.15 7.547zm-5.5-16.435a2.052 2.052 0 0 1 1.135-1.75 1.002 1.002 0 0 0 .136-1.703 3.633 3.633 0 0 1-1.518-3.125 3.47 3.47 0 0 1 1.627-2.78.998.998 0 0 0 .294-1.418 2.725 2.725 0 0 1-.492-1.7 2.626 2.626 0 0 1 2.81-2.499 2.732 2.732 0 0 1 1.567.63 1 1 0 0 0 1.427-.16 3.192 3.192 0 0 1 2.743-1.227 3.363 3.363 0 0 1 2.991 2.427c.128.443.549.746 1.014.722a3.14 3.14 0 0 1 .4 0c1.216.08 2.266.82 2.782 1.894-.029.012-.054.03-.082.043-.226.1-.444.22-.66.347-.078.045-.16.083-.235.131a6.618 6.618 0 0 0-.816.616 6.649 6.649 0 0 0-2.217 4.909 5.803 5.803 0 0 0-2.85 1.713c-.046.05-.087.106-.132.16-.083.096-.167.192-.242.294-.048.064-.09.133-.134.198-.064.094-.131.187-.189.283-.044.074-.08.15-.121.225-.05.093-.104.186-.149.281-.038.08-.068.162-.103.244-.039.094-.08.187-.114.283-.03.085-.053.17-.08.256-.03.096-.061.19-.086.287-.023.088-.039.176-.057.264-.02.097-.042.193-.057.291-.015.09-.022.181-.032.273-.01.096-.022.193-.028.29-.005.092-.004.185-.006.277-.001.097-.004.194 0 .29.003.092.012.185.019.277.008.097.014.193.026.289.012.093.03.184.046.277.016.095.033.19.054.285.021.09.046.18.07.271.027.095.053.19.084.283.03.089.063.176.097.264.036.093.07.186.111.277.039.087.081.172.124.257.045.09.09.18.138.267a7.31 7.31 0 0 0 .316.504c.056.08.116.158.176.236.04.05.073.104.113.153a.937.937 0 0 1-.582.154 1.03 1.03 0 0 1-.855-.599 1 1 0 0 0-1.386-.45 2.053 2.053 0 0 1-1.14.251 2.194 2.194 0 0 1-1.912-1.446 1 1 0 0 0-1.23-.614 2.09 2.09 0 0 1-.752.088 2.152 2.152 0 0 1-.87-.257c-.004-.002-.009-.001-.012-.003a2.196 2.196 0 0 1-1.16-2.03zM6.69 47.781l-.566.403a.51.51 0 0 1-.675-.076l-3.325-3.734a.5.5 0 0 1 .012-.68c6.712-6.87 10.452-16.399 8.924-21.595.042.066.092.125.138.187.041.057.081.115.125.168.06.075.126.144.19.213.047.05.091.102.14.149.068.066.142.126.214.188.051.044.1.09.154.131.076.058.155.11.234.162.056.038.11.078.169.113.083.05.17.091.256.135.058.03.115.064.175.09.098.044.199.08.3.116.053.019.103.042.156.06.13.041.262.072.396.1.028.006.054.016.081.02a4.215 4.215 0 0 0 .909.072c-.26 2.85-1.26 8.198-4.972 13.645a1 1 0 0 0 1.414 1.372c.311-.226 7.026-5.138 10.881-10.182.038.061.084.118.123.178.088.136.177.271.275.402.066.088.136.171.205.256.06.074.115.152.179.223.037.042.078.078.115.118a7.691 7.691 0 0 0 1.212 1.042c.044.03.085.067.13.096-1.988 2.137-4.886 4.727-8.5 6.488a1 1 0 0 0 .804 1.829c.064-.025 5.906-2.306 10.978-2.588-.005.018-.005.039-.01.058a2.937 2.937 0 0 0-.1.603l-.002.016c-.009.186.001.37.026.552v.018c.014.092.044.177.065.267.023.095.037.192.07.284.016.047.043.089.06.134.052.13.104.258.173.38.094.163.203.318.326.463a5.294 5.294 0 0 0-.2.663c-6.173-3.31-17.35 4.67-21.259 7.46zm37.025-1.88a3.312 3.312 0 0 1-1.851-.723 1 1 0 0 0-1.473.253 2.63 2.63 0 0 1-2.413 1.229 2.806 2.806 0 0 1-2.14-1.275 1.003 1.003 0 0 0-1.187-.397 3.447 3.447 0 0 1-1.447.21c-1.706-.115-3.074-1.417-3.343-3.046v-.004a3.465 3.465 0 0 1 .38-2.264c.06-.109.09-.222.108-.338.005-.032.002-.064.004-.097a.834.834 0 0 0-.047-.352.98.98 0 0 0-.094-.203.804.804 0 0 0-.066-.102c-.013-.017-.02-.038-.034-.054a.983.983 0 0 0-.2-.172l-.004-.004c-.037-.023-.065-.056-.098-.083a1.023 1.023 0 0 1-.367-.674c-.005-.05-.016-.1-.013-.152a.931.931 0 0 1 .06-.28c.008-.023.022-.043.031-.065a.951.951 0 0 1 .465-.47.95.95 0 0 0 .115-.062c.256.187.526.347.805.483.08.038.164.062.245.097.212.091.426.175.646.238.113.032.227.05.341.074.196.041.39.076.589.096.124.011.246.015.37.017a5.033 5.033 0 0 0 1.518-.193c.117-.032.233-.061.348-.103a5.11 5.11 0 0 0 .588-.264c.094-.047.19-.085.282-.14.28-.165.548-.353.8-.576.24-.214.458-.45.653-.707a5.149 5.149 0 0 0 4.855-1.095c.493-.44.893-.968 1.183-1.558a3.64 3.64 0 0 0 2.127-.458c.213-.122.417-.267.605-.435.18-.16.338-.339.48-.527.046-.061.078-.128.12-.192.088-.134.173-.269.242-.412.038-.081.066-.166.099-.25a3.57 3.57 0 0 0 .138-.41c.024-.093.039-.188.055-.283.015-.085.041-.165.05-.25a2.783 2.783 0 0 1 2.089 2.818 2.624 2.624 0 0 1-.592 1.543.998.998 0 0 0 .157 1.42 3.36 3.36 0 0 1 1.292 2.8 3.183 3.183 0 0 1-2.338 2.923.998.998 0 0 0-.734 1.036 3.177 3.177 0 0 1-1.055 2.635 3.184 3.184 0 0 1-2.344.799z"/></svg>