<svg xmlns="http://www.w3.org/2000/svg" viewBox="0 0 512.001 512.001" width="512" height="512"><path d="M382.012 442.51l-.301-.048c-6.7-1.022-11.705-6.807-11.705-13.729v-104.26c-5.987 1.728-12.281 2.668-18.784 2.668s-12.797-.94-18.784-2.668v104.26c0 6.921-5.005 12.707-11.704 13.729l-.303.048c-13.655 2.222-24.267 13.806-25.551 27.875-1.701 18.625 12.596 34.284 30.472 34.284 6.766 0 13.018-2.245 18.083-6.046a12.987 12.987 0 0 1 15.576 0c21.022 15.773 51.036-1.092 48.555-28.24-1.287-14.069-11.899-25.653-25.554-27.873z" fill="#f9e0c7"/><path d="M382.012 442.51l-.301-.048c-6.7-1.022-11.705-6.807-11.705-13.729v-29.917a50.79 50.79 0 0 0-8.005-1.837c-5.593-.814-9.73-5.623-9.73-11.274v-58.583c-.35.005-.698.019-1.049.019a67.57 67.57 0 0 1-18.784-2.669v104.261c0 6.921-5.005 12.707-11.704 13.729l-.303.048c-13.655 2.222-24.267 13.806-25.551 27.875-1.701 18.625 12.596 34.284 30.472 34.284.863 0 1.716-.038 2.561-.11.1-.009.196-.027.296-.037.75-.071 1.495-.163 2.229-.288l.079-.017a30.083 30.083 0 0 0 12.633-5.383 13.662 13.662 0 0 1 15.861-.212l.015.01c21.638-1.289 40.508-16.797 45.667-38.747-4.252-9.03-12.635-15.741-22.681-17.375z" fill="#f7ca9a"/><path d="M464.916 137.115c0-71.457-50.903-129.385-113.694-129.385-62.792 0-113.694 57.928-113.694 129.385 0 35.528 12.587 67.707 32.959 91.088 6.366 7.305 9.658 16.704 9.376 26.389-1.211 41.741 31.059 76.343 71.359 76.343 40.317 0 72.569-34.619 71.359-76.343-.281-9.686 3.011-19.084 9.376-26.389 20.373-23.381 32.959-55.559 32.959-91.088z" fill="#b26314"/><path d="M299.828 211.672c7.138-36.492.28-75.273-19.308-109.202-7.241-12.542-15.924-23.898-25.762-33.849-10.915 19.865-17.23 43.339-17.23 68.495 0 35.528 12.587 67.707 32.959 91.088 6.366 7.305 9.658 16.703 9.377 26.389-.714 24.491 10.146 46.78 27.786 60.917a93.01 93.01 0 0 0 6.273-17.569c5.929-23.915 2.31-49.01-10.191-70.662-1.573-2.722-5.428-7.81-3.904-15.607z" fill="#a3520a"/><path d="M343.815 418.51c-6.313 2.465-13.54-.043-17.001-6.037l-52.13-90.292a67.617 67.617 0 0 1-14.933 11.703 67.579 67.579 0 0 1-17.602 7.081l52.13 90.292c3.461 5.994 2.019 13.507-3.272 17.741l-.239.193c-10.715 8.752-14.112 24.09-8.191 36.916 7.839 16.98 28.05 23.393 43.531 14.455 5.86-3.383 10.151-8.453 12.637-14.277a12.988 12.988 0 0 1 13.489-7.788c26.092 3.149 43.652-26.463 27.929-48.734-8.206-11.626-23.349-16.334-36.348-11.253z" fill="#f9e0c7"/><path d="M312.408 449.192l.239-.193c5.291-4.235 6.732-11.748 3.272-17.741l-41.624-72.095c-5.122-8.872-1.92-20.1 6.963-25.202l.169-.098v-.001l-6.744-11.681a67.617 67.617 0 0 1-14.933 11.703 67.593 67.593 0 0 1-17.602 7.081l52.13 90.292c3.461 5.994 2.02 13.507-3.271 17.741l-.239.193c-10.715 8.752-14.112 24.09-8.191 36.916 7.135 15.455 24.518 22.15 39.256 16.49-22.47-8.456-27.714-38.466-9.425-53.405z" fill="#f7ca9a"/><path d="M263.2 112.47c-35.729-61.884-108.776-86.6-163.155-55.204S30.547 164.28 66.275 226.164c17.764 30.768 44.754 52.342 74.087 62.405 9.165 3.144 16.716 9.637 21.315 18.165 19.822 36.754 65.07 50.585 99.97 30.436 34.915-20.158 45.537-66.266 23.627-101.795-5.086-8.247-6.934-18.033-5.074-27.542 5.953-30.434.764-64.595-17-95.363z" fill="#b26314"/><path d="M181.677 306.734c-4.599-8.529-12.149-15.022-21.315-18.166-29.333-10.062-56.323-31.636-74.087-62.405-35.728-61.883-20.609-137.501 33.77-168.897 13.021-7.517 27.113-11.81 41.505-13.153-21.188-1.935-42.488 2.174-61.505 13.153-54.379 31.396-69.498 107.014-33.77 168.898 17.764 30.768 44.754 52.343 74.087 62.405 9.166 3.144 16.716 9.637 21.315 18.166.35.649.71 1.294 1.082 1.938 15.766 27.308 45.656 41.132 74.162 37.042-22.628-3.233-43.483-17.179-55.244-38.981z" fill="#a3520a"/><path d="M465.347 129.732a7.5 7.5 0 0 0 6.727-8.201C465.226 52.247 413.452 0 351.64 0c-24.745 0-48.542 8.361-68.815 24.181-16.646 12.988-30.004 30.266-39.111 50.408-19.698-19.013-43.946-31.879-70.146-36.684a7.496 7.496 0 0 0-8.73 6.023 7.5 7.5 0 0 0 6.023 8.73c66.546 12.206 115.952 84.207 102.397 153.506-6.72 34.358 28.639 44.128 12.764 90.41-4.828 20.76-36.104 51.226-76.452 39.598-17.775-5.123-32.243-17.224-40.872-33.228-5.529-10.253-14.579-17.96-25.483-21.701C47.146 248.294 22.582 110.662 104.214 63.53c10.48-6.051 21.933-9.976 34.038-11.666a7.499 7.499 0 0 0 6.391-8.465c-.572-4.103-4.371-6.957-8.465-6.391-14.025 1.958-27.303 6.511-39.464 13.531C38.841 83.954 22.46 164.317 60.199 229.684c18.08 31.314 45.833 54.664 78.148 65.748 11.04 3.789 15.279 11.468 18.335 16.76 17.81 30.847 51.97 46.023 84.058 40.379l48.274 83.612c1.514 2.622.845 5.93-1.583 7.859l-.305.245c-30.284 24.564-7.879 74.542 31.366 66.934 10.196 1.984 20.955-.16 29.8-6.656 1.969-1.447 4.724-1.448 6.696 0 15.818 11.617 37.697 9.195 50.701-5.079 17.399-19.102 11.09-49.725-12.623-60.409-2.139-8.915-7.394-16.91-15.141-22.358v-83.19c31.349-11.498 53.627-42.937 52.571-79.385-.229-7.861 2.447-15.406 7.533-21.244 17.863-20.5 29.386-46.295 33.324-74.598a7.5 7.5 0 1 0-14.858-2.066c-3.535 25.409-13.832 48.512-29.775 66.811-7.572 8.69-11.557 19.89-11.219 31.534.939 31.926-20.015 59.417-48.679 66.708-24.034 6.137-49.747-2.784-65.431-23.587 5.372-18.528 4.031-38.6-4.215-56.889-4.537-10.02-12.026-17.305-9.197-31.77 8.519-43.557-5.064-88.724-33.099-122.416C272.092 42.968 309.657 15 351.64 15c54.063 0 99.421 46.433 105.505 108.006.408 4.122 4.087 7.126 8.202 6.726zM290.179 483.381c-4.315-9.395-1.625-20.938 6.332-27.393l.247-.197c8.3-6.599 10.507-18 5.247-27.108l-46.377-80.328a77.594 77.594 0 0 0 19.545-11.284l46.377 80.327c3.778 6.545 10.512 10.323 17.656 10.502 5.213.145 7.869-1.439 10.617-2.217 25.202-7.042 42.02 28.278 17.766 42.282a22.908 22.908 0 0 1-14.049 2.957c-8.893-.98-17.593 4.068-21.177 12.227-7.941 18.088-33.8 18.487-42.184.232zm73.689 9.095c-5.124-3.763-11.756-4.881-17.807-3.212a5.687 5.687 0 0 1 5.05-3.453c1.064-.034 3.766.513 8.329.11 16.138-1.421 29.847-13.132 33.656-29.119 4.142 3.8 6.885 9.057 7.419 14.779 1.861 19.908-20.645 32.646-36.647 20.895zm-.942-155.112v73.065c-12.294-2.257-20.299 2.224-22.568 2.429v-75.494a76.561 76.561 0 0 0 22.568 0zm-37.569-3.843v60.473l-39.091-67.708a76.661 76.661 0 0 0 8.751-12.91c8.521 9.088 18.926 15.961 30.34 20.145z" fill="#020202"/></svg>