<svg xmlns="http://www.w3.org/2000/svg" viewBox="0 0 512.413 512.413"><path d="M221.078 343.957l-53.333-52.267a10.41 10.41 0 0 0-8.533-2.987 10.67 10.67 0 0 0-7.787 4.736 692.167 692.167 0 0 1-83.968 93.696c-9.045 8.981-19.008 18.197-24.512 18.197-19.691 0-42.667 8.384-42.667 32a42.238 42.238 0 0 0 21.824 40.533c1.222 20.264 18.639 35.7 38.903 34.478a36.631 36.631 0 0 0 3.273-.345c17.707 0 42.667-9.92 42.667-32 0-12.011.704-17.6 18.219-35.115a672.749 672.749 0 0 1 94.293-84.373c4.926-3.231 6.301-9.843 3.07-14.769a10.663 10.663 0 0 0-1.449-1.764v-.02z" fill="#cfd8dc"/><path d="M373.612 0C205.334 0 170.945 185.088 170.945 234.667a103.125 103.125 0 0 1-19.584 58.773 10.667 10.667 0 0 0-1.749 5.739c0 2.56-.235 5.077-.427 7.467a32.215 32.215 0 0 0 5.653 26.155 35.966 35.966 0 0 0 26.773 8.533c15.851 0 20.395 8.128 21.696 12.992 1.512 5.694 7.354 9.083 13.047 7.571a10.663 10.663 0 0 0 3.038-1.342 103.867 103.867 0 0 1 58.219-19.221c49.557 0 234.667-34.389 234.667-202.667C512.278 91.733 449.516 0 373.612 0z" fill="#ffb300"/></svg>