<svg xmlns="http://www.w3.org/2000/svg" viewBox="0 0 511.995 511.995"><path d="M498.353 408.856c16.827 16.068 17.441 42.733 1.372 59.56a42.131 42.131 0 0 1-19.956 11.704 42.176 42.176 0 0 1-10.911 19.095c-16.571 16.222-43.057 16.256-59.671.085a41.885 41.885 0 0 1-12.787-30.006 42.627 42.627 0 0 1 6.819-23.613l-43.389-43.219a188.89 188.89 0 0 0 18.327-5.797l42.451 42.281c3.333 3.299 3.367 8.669.085 12.019-9.829 10.11-9.633 26.264.426 36.143 9.956 9.633 25.761 9.633 35.717 0a25.34 25.34 0 0 0 7.16-15.173 8.62 8.62 0 0 1 7.672-7.672 24.876 24.876 0 0 0 15.259-7.16c9.982-10.008 9.965-26.204-.043-36.186s-26.204-9.965-36.186.043a8.52 8.52 0 0 1-12.019 0l-35.632-35.632a169.252 169.252 0 0 0 15.173-8.951l27.193 27.108c16.771-10.671 38.67-8.455 52.94 5.371z" fill="#d3d3d3"/><path d="M381.398 18.099a145.143 145.143 0 0 0-14.918-.852 121.003 121.003 0 0 0-18.413 1.364 534.142 534.142 0 0 1-144.233-.085 168.569 168.569 0 0 0-20.629-1.279c-83.793.212-154.384 62.636-164.86 145.766a129.531 129.531 0 0 0-1.023 11.423c-.17 3.154-.256 6.308-.256 9.377.077 91.748 74.52 166.064 166.26 165.978a166.134 166.134 0 0 0 118.625-49.961 90.494 90.494 0 0 1 64.274-26.767h.597c66.251.043 121.6-50.464 127.61-116.443.341-3.58.511-7.246.511-10.911v-.511c.111-65.118-48.819-119.888-113.545-127.099zm2.217 178.245c-28.25 0-51.146-22.896-51.146-51.146s22.896-51.146 51.146-51.146 51.146 22.896 51.146 51.146-22.896 51.146-51.146 51.146z" fill="#f5d0c7"/><path d="M486.419 421.046c10.101 9.794 10.349 25.923.554 36.016l-.043.043a24.865 24.865 0 0 1-15.259 7.16 8.62 8.62 0 0 0-7.672 7.672 25.35 25.35 0 0 1-7.16 15.173c-9.956 9.633-25.761 9.633-35.717 0-10.059-9.88-10.255-26.033-.426-36.143 3.282-3.35 3.248-8.72-.085-12.019l-42.451-42.281a198.96 198.96 0 0 0 24.891-11.337l35.632 35.632a8.52 8.52 0 0 0 12.019 0c9.956-9.668 25.812-9.625 35.717.084z" fill="#d3d3d3"/><path d="M383.615 94.051c28.25 0 51.146 22.896 51.146 51.146s-22.896 51.146-51.146 51.146-51.146-22.896-51.146-51.146 22.905-51.146 51.146-51.146zm34.097 51.146c0-18.83-15.267-34.098-34.098-34.098-18.83 0-34.098 15.267-34.098 34.098s15.267 34.098 34.098 34.098 34.098-15.259 34.098-34.098z" fill="#edb4a5"/><circle cx="383.598" cy="145.172" r="34.098" fill="#d49586"/><path d="M494.176 214.756c-25.607 46.509-74.512 75.39-127.61 75.356a72.092 72.092 0 0 0-52.51 21.652 183.136 183.136 0 0 1-130.935 55.068c-3.41 0-6.819-.085-10.229-.256C75.987 361.009.197 280.888.018 183.813v21.055C.171 317.799 91.672 409.3 204.603 409.453h102.293a200.757 200.757 0 0 0 52.936-6.99 188.89 188.89 0 0 0 18.327-5.797 198.96 198.96 0 0 0 24.891-11.337 169.252 169.252 0 0 0 15.173-8.951c58.136-37.678 93.24-102.233 93.257-171.511v-47.992a142.856 142.856 0 0 1-17.304 57.881z" fill="#ec9821"/><path d="M383.274 1.22a146.061 146.061 0 0 0-37.593.511 520.964 520.964 0 0 1-139.629-.085C105.601-10.773 14.04 60.456 1.381 160.882c-.426 3.239-.682 6.564-.938 9.888-.085.938-.085 1.79-.17 2.728-.17 3.495-.256 6.905-.256 10.315.17 97.076 75.961 177.196 172.874 182.763 3.41.171 6.82.256 10.229.256a183.135 183.135 0 0 0 130.935-55.068 72.092 72.092 0 0 1 52.51-21.652c53.098.034 102.003-28.847 127.61-75.356a143.14 143.14 0 0 0 17.304-57.881c.341-3.665.511-7.331.511-11.082.454-74.042-55.117-136.449-128.716-144.573zm111.669 144.489c0 3.665-.17 7.331-.511 10.911-6.01 65.979-61.358 116.486-127.61 116.443h-.597a90.49 90.49 0 0 0-64.274 26.767c-64.155 65.587-169.328 66.754-234.923 2.608a166.117 166.117 0 0 1-49.706-128.002c.17-3.836.511-7.587 1.023-11.423C28.821 79.883 99.412 17.459 183.207 17.246c6.896 0 13.784.435 20.629 1.279a534.101 534.101 0 0 0 144.233.085 121.003 121.003 0 0 1 18.413-1.364c4.987.026 9.965.315 14.918.852 64.726 7.203 113.656 61.972 113.545 127.099l-.002.512z" fill="#edb4a5"/><path d="M183.471 366.831h-.188A182.754 182.754 0 0 1 .145 190.803C-3.852 89.823 75.058 4.426 176.038.428c9.999-.401 20.083.034 30.014 1.253a521.297 521.297 0 0 0 139.629.102 146.085 146.085 0 0 1 37.61-.554h.009c73.259 8.439 128.428 70.403 128.343 144.139-.051 38.709-15.165 75.083-42.562 102.42-27.363 27.295-63.703 42.324-102.335 42.324-.264-.009-.477 0-.708 0-19.708 0-38.479 7.877-51.99 21.652-34.09 35.001-81.69 55.067-130.577 55.067zm-.179-17.049h.17c44.327 0 87.469-18.2 118.404-49.936 16.708-17.049 39.92-26.784 63.762-26.784h.801c34.404 0 66.465-13.255 90.606-37.337 24.184-24.124 37.516-56.218 37.558-90.376.077-65.058-48.606-119.733-113.238-127.175a129.328 129.328 0 0 0-33.313.503 538.237 538.237 0 0 1-144.173-.085 168.711 168.711 0 0 0-27.167-1.134c-44.361 1.765-85.389 20.689-115.514 53.294S15.43 145.76 17.177 190.129a165.762 165.762 0 0 0 166.098 159.653h.017z"/><path d="M383.623 196.344c-28.207 0-51.146-22.939-51.146-51.146s22.939-51.146 51.146-51.146 51.146 22.939 51.146 51.146-22.947 51.146-51.146 51.146zm0-85.244c-18.805 0-34.098 15.293-34.098 34.098s15.293 34.098 34.098 34.098 34.098-15.293 34.098-34.098-15.293-34.098-34.098-34.098z"/><path d="M306.904 409.453H204.611C91.808 409.453.026 317.671.026 204.868V170.77h17.049v34.098c0 103.409 84.127 187.536 187.536 187.536h102.293c103.409 0 187.536-84.127 187.536-187.536v-59.671h17.049v59.671c0 112.812-91.782 204.585-204.585 204.585z"/><path d="M438.725 511.754c-11.389 0-22.095-4.441-30.134-12.488-14.551-14.551-16.367-37.098-5.43-53.635l-46.765-46.637 12.036-12.071 52.203 52.05a8.509 8.509 0 0 1 2.506 6.027 8.506 8.506 0 0 1-2.498 6.035c-9.974 9.974-9.974 26.195 0 36.169 9.667 9.667 26.494 9.65 36.169 0 4.066-4.083 6.615-9.53 7.186-15.31a8.501 8.501 0 0 1 7.578-7.638c6.777-.725 12.863-4.049 17.143-9.351 4.279-5.294 6.231-11.943 5.507-18.72-1.5-13.997-14.193-24.158-28.071-22.649-5.788.614-11.235 3.231-15.361 7.357a8.509 8.509 0 0 1-6.027 2.506h-.009a8.487 8.487 0 0 1-6.027-2.498l-40.065-40.056 12.053-12.053 34.643 34.635a42.674 42.674 0 0 1 18.984-6.845c23.22-2.549 44.327 14.449 46.824 37.789 1.21 11.303-2.054 22.402-9.189 31.242-5.754 7.135-13.469 12.113-22.172 14.406a42.409 42.409 0 0 1-10.92 19.214c-8.069 8.089-18.775 12.521-30.164 12.521z"/></svg>