<svg xmlns="http://www.w3.org/2000/svg" viewBox="0 0 511 511"><path d="M191.5 211a7.474 7.474 0 0 0 5.303-2.197l8-8a7.5 7.5 0 0 0 0-10.606 7.5 7.5 0 0 0-10.606 0l-8 8a7.5 7.5 0 0 0 0 10.606A7.474 7.474 0 0 0 191.5 211zm74.697-10.197c1.464 1.464 3.384 2.197 5.303 2.197s3.839-.732 5.303-2.197a7.5 7.5 0 0 0 0-10.606l-8-8a7.5 7.5 0 0 0-10.606 0 7.5 7.5 0 0 0 0 10.606l8 8zm136-8c1.464 1.464 3.384 2.197 5.303 2.197s3.839-.732 5.303-2.197a7.5 7.5 0 0 0 0-10.606l-8-8a7.5 7.5 0 0 0-10.606 0 7.5 7.5 0 0 0 0 10.606l8 8zm-184-56c1.464 1.464 3.384 2.197 5.303 2.197s3.839-.732 5.303-2.197a7.5 7.5 0 0 0 0-10.606l-8-8a7.5 7.5 0 0 0-10.606 0 7.5 7.5 0 0 0 0 10.606l8 8zM159.5 171a7.474 7.474 0 0 0 5.303-2.197l8-8a7.5 7.5 0 0 0 0-10.606 7.5 7.5 0 0 0-10.606 0l-8 8a7.5 7.5 0 0 0 0 10.606A7.474 7.474 0 0 0 159.5 171zm-53.303 29.803c1.464 1.464 3.384 2.197 5.303 2.197s3.839-.732 5.303-2.197a7.5 7.5 0 0 0 0-10.606l-8-8a7.5 7.5 0 0 0-10.606 0 7.5 7.5 0 0 0 0 10.606l8 8zM335.5 211a7.474 7.474 0 0 0 5.303-2.197l8-8a7.5 7.5 0 0 0 0-10.606 7.5 7.5 0 0 0-10.606 0l-8 8a7.5 7.5 0 0 0 0 10.606A7.474 7.474 0 0 0 335.5 211zm-48-64a7.474 7.474 0 0 0 5.303-2.197l8-8a7.5 7.5 0 0 0 0-10.606 7.5 7.5 0 0 0-10.606 0l-8 8a7.5 7.5 0 0 0 0 10.606A7.474 7.474 0 0 0 287.5 147zm48 16a7.474 7.474 0 0 0 5.303-2.197l8-8a7.5 7.5 0 0 0 0-10.606 7.5 7.5 0 0 0-10.606 0l-8 8a7.5 7.5 0 0 0 0 10.606A7.474 7.474 0 0 0 335.5 163z"/><path d="M479.5 308H471v-21.567l.004-.001C475.46 284.59 479.309 283 487.5 283a7.5 7.5 0 0 0 0-15c-7.364 0-12.42 1.057-16.5 2.39V251h.5c13.397 0 23.5-10.105 23.5-23.507V203.5c0-15.883-21.454-47.702-61.214-75.386C399.641 104.34 340.994 76 255.5 76s-144.141 28.34-178.286 52.114C37.454 155.798 16 187.617 16 203.5v23.993C16 240.895 26.103 251 39.5 251h.5v19.402C35.923 269.063 30.87 268 23.5 268a7.5 7.5 0 0 0 0 15c8.162 0 11.997 1.589 16.438 3.429l.062.026V308h-8.5C14.131 308 0 322.131 0 339.5v16C0 372.869 14.131 387 31.5 387h.5v8.528C32 417.293 49.707 435 71.472 435h368.057C461.293 435 479 417.293 479 395.528V387h.5c17.369 0 31.5-14.131 31.5-31.5v-16c0-17.369-14.131-31.5-31.5-31.5zM31 227.493V203.5c0-8.421 16.543-36.448 54.786-63.076C118.167 117.877 173.897 91 255.5 91s137.333 26.877 169.714 49.424C463.457 167.052 480 195.079 480 203.5v23.993c0 5.009-3.495 8.507-8.5 8.507h-432c-5.005 0-8.5-3.498-8.5-8.507zM456 251v24.468c-2.018.333-4.349.532-7.221.532-8.192 0-12.04-1.59-16.496-3.432-5.182-2.142-11.056-4.568-22.225-4.568-11.163 0-17.034 2.428-22.213 4.569-4.452 1.841-8.297 3.431-16.481 3.431-8.175 0-12.016-1.59-16.462-3.43-5.176-2.143-11.042-4.57-22.198-4.57-11.155 0-17.021 2.428-22.196 4.57-4.446 1.84-8.287 3.43-16.459 3.43-8.176 0-12.018-1.59-16.465-3.43-5.177-2.142-11.044-4.57-22.201-4.57s-17.024 2.428-22.2 4.57c-4.448 1.84-8.289 3.43-16.465 3.43s-12.018-1.59-16.465-3.43c-5.177-2.142-11.043-4.57-22.201-4.57-11.153 0-17.019 2.428-22.193 4.57-4.445 1.84-8.285 3.43-16.456 3.43-8.166 0-12.002-1.589-16.445-3.429-5.173-2.142-11.036-4.571-22.185-4.571-11.154 0-17.021 2.428-22.196 4.57-4.446 1.84-8.286 3.43-16.458 3.43-2.825 0-5.124-.194-7.117-.519V251H456zM55 290.621c2.117.239 4.463.379 7.117.379 11.154 0 17.02-2.428 22.195-4.57 4.446-1.84 8.286-3.43 16.458-3.43 8.166 0 12.002 1.589 16.445 3.429 5.173 2.142 11.036 4.571 22.185 4.571 11.153 0 17.018-2.428 22.193-4.57 4.445-1.84 8.285-3.43 16.456-3.43 8.176 0 12.018 1.59 16.465 3.43 5.176 2.142 11.044 4.57 22.201 4.57s17.024-2.428 22.201-4.57c4.448-1.84 8.289-3.43 16.465-3.43s12.018 1.59 16.466 3.43c5.177 2.142 11.044 4.57 22.201 4.57 11.155 0 17.021-2.428 22.196-4.57 4.447-1.84 8.287-3.43 16.46-3.43 8.174 0 12.015 1.589 16.462 3.43 5.176 2.143 11.043 4.57 22.199 4.57 11.163 0 17.034-2.428 22.213-4.569 4.452-1.841 8.297-3.431 16.481-3.431 8.192 0 12.04 1.59 16.496 3.432 5.182 2.142 11.056 4.568 22.225 4.568a63.38 63.38 0 0 0 7.221-.389V308H239.494c-12.956.004-23.494 10.544-23.494 23.5v8a8.494 8.494 0 0 1-2.999 6.48c-1.931 1.642-4.412 2.316-6.984 1.898-3.935-.64-7.017-4.697-7.017-9.234v-6.288c0-11.886-8.43-22.221-19.609-24.04-6.884-1.12-13.851.803-19.11 5.277A23.472 23.472 0 0 0 152 331.5v47.144c0 4.538-3.082 8.594-7.017 9.234-2.572.416-5.053-.255-6.984-1.898A8.495 8.495 0 0 1 135 379.5v-40c0-17.369-14.132-31.5-31.502-31.5H55v-17.379zM15 355.5v-16c0-9.098 7.402-16.5 16.5-16.5h72c9.098 0 16.5 7.402 16.5 16.5V372H31.5c-9.098 0-16.5-7.402-16.5-16.5zm449 40.028C464 409.022 453.022 420 439.528 420H71.472C57.978 420 47 409.022 47 395.528V387h74.226a23.486 23.486 0 0 0 7.055 10.407 23.51 23.51 0 0 0 15.255 5.589c1.28 0 2.57-.104 3.855-.313 8.439-1.373 15.305-7.601 18.167-15.684H464v8.529zm32-40.028c0 9.098-7.402 16.5-16.5 16.5H167v-40.5a8.494 8.494 0 0 1 2.999-6.48c1.931-1.642 4.412-2.316 6.984-1.898 3.935.64 7.017 4.697 7.017 9.234v6.288c0 11.886 8.43 22.221 19.609 24.04 6.883 1.119 13.85-.803 19.11-5.277A23.47 23.47 0 0 0 231 339.5v-8c0-4.687 3.813-8.5 8.5-8.5h240c9.098 0 16.5 7.402 16.5 16.5v16z"/></svg>