<svg xmlns="http://www.w3.org/2000/svg" viewBox="0 0 376.832 376.832"><path d="M290.304 205.312c-13.312 0-24.064 10.752-24.064 24.064s10.752 24.064 24.064 24.064 24.064-10.752 24.064-24.064-10.752-24.064-24.064-24.064zm0 37.888c-7.68 0-13.824-6.144-13.824-13.824s6.144-13.824 13.824-13.824 13.824 6.144 13.824 13.824-6.144 13.824-13.824 13.824zm-61.44 19.456c-13.312 0-24.064 10.752-24.064 24.064s10.752 24.064 24.064 24.064 24.064-10.752 24.064-24.064-10.752-24.064-24.064-24.064zm0 37.888a13.767 13.767 0 0 1-13.824-13.824c0-7.68 6.144-13.824 13.824-13.824s13.824 6.144 13.824 13.824-6.144 13.824-13.824 13.824zm-81.92-37.376c-13.312 0-24.064 10.752-24.064 24.064 0 12.8 10.752 24.064 24.064 24.064s24.064-10.752 24.064-24.064-10.752-24.064-24.064-24.064zm0 37.376a13.767 13.767 0 0 1-13.824-13.824c0-7.68 6.144-13.824 13.824-13.824s13.824 6.144 13.824 13.824-6.144 13.824-13.824 13.824zm81.92-238.592c-13.312 0-24.064 10.752-24.064 24.064s10.752 24.064 24.064 24.064 24.064-10.752 24.064-24.064c.512-13.312-10.752-24.064-24.064-24.064zm0 37.888a13.767 13.767 0 0 1-13.824-13.824c0-7.68 6.144-13.824 13.824-13.824s13.824 6.144 13.824 13.824c.512 7.68-6.144 13.824-13.824 13.824zm-81.92-37.888c-13.312 0-24.064 10.752-24.064 24.064s10.752 24.064 24.064 24.064 24.064-10.752 24.064-24.064-10.752-24.064-24.064-24.064zm0 38.4c-7.68 0-13.824-6.144-13.824-13.824s6.144-13.824 13.824-13.824 13.824 6.144 13.824 13.824c0 7.168-6.144 13.824-13.824 13.824zm143.36 22.016c-13.312 0-24.064 10.752-24.064 24.064s10.752 24.064 24.064 24.064 24.064-10.752 24.064-24.064c0-12.8-10.752-24.064-24.064-24.064zm0 38.4c-7.68 0-13.824-6.144-13.824-13.824s6.144-13.824 13.824-13.824 13.824 6.144 13.824 13.824-6.144 13.824-13.824 13.824zM87.552 205.312c-13.312 0-24.064 10.752-24.064 24.064S74.24 253.44 87.552 253.44s24.064-10.752 24.064-24.064-10.752-24.064-24.064-24.064zm0 37.888c-7.68 0-13.824-6.144-13.824-13.824s6.144-13.824 13.824-13.824 13.824 6.144 13.824 13.824S95.232 243.2 87.552 243.2zm0-120.832c-13.312 0-24.064 10.752-24.064 24.064s10.752 24.064 24.064 24.064 24.064-10.752 24.064-24.064c0-12.8-10.752-24.064-24.064-24.064zm0 38.4c-7.68 0-13.824-6.144-13.824-13.824s6.144-13.824 13.824-13.824 13.824 6.144 13.824 13.824-6.144 13.824-13.824 13.824z"/><path d="M188.416 0C84.48 0 0 84.48 0 188.416s84.48 188.416 188.416 188.416 188.416-84.48 188.416-188.416C376.832 84.992 292.352 0 188.416 0zM59.392 66.048l7.168 7.168c-4.096 6.144-6.144 13.824-7.68 21.504-1.536 6.144-2.56 11.776-5.12 16.384-2.56 4.096-6.656 8.192-11.264 12.288-6.656 6.144-13.824 12.8-16.384 22.016-2.56 8.704.512 17.92 3.072 26.624 1.024 4.096 2.56 7.68 3.072 11.264H10.752c1.024-45.568 19.456-86.528 48.64-117.248zm123.392 109.056L80.896 73.216c4.096-2.048 9.728-3.584 15.36-4.608 6.656-1.536 13.312-3.072 18.944-6.144s10.24-8.192 14.848-13.312c5.632-6.144 10.752-11.776 16.896-13.312 6.144-1.536 13.312.512 20.992 3.072 5.12 1.536 9.728 3.072 14.848 3.584v132.608zm-7.168 8.192H41.984v-.512c-.512-5.12-2.048-9.728-3.584-14.336-2.56-7.68-4.608-14.848-3.072-20.992 1.536-6.144 7.168-11.264 13.312-16.896 5.12-4.608 10.24-9.216 13.312-14.848 3.584-5.632 5.12-12.8 6.144-18.944 1.536-6.144 2.56-11.776 5.12-15.872l102.4 102.4zm.512 9.728L73.216 295.936c-2.048-4.096-3.584-9.728-4.608-15.36-1.536-6.656-3.072-13.312-6.144-18.944s-8.192-10.24-13.312-14.848c-6.144-5.632-11.776-10.752-13.312-16.896s.512-13.312 3.072-20.992c1.536-5.12 3.072-10.24 4.096-15.872h133.12zm-165.888 0h22.016c-.512 4.096-2.048 8.192-3.072 12.8-2.56 8.704-5.632 17.92-3.072 26.624 2.56 9.216 9.728 15.872 16.384 22.016 4.608 4.096 8.704 8.192 11.264 12.288 2.56 4.608 4.096 10.24 5.12 16.384 1.536 7.168 3.072 14.336 7.168 20.48l-7.68 7.168c-29.184-30.72-47.104-72.192-48.128-117.76zm173.056 174.08c-45.568-1.536-86.528-19.456-117.76-49.152l7.168-7.168c6.144 4.096 13.824 6.144 21.504 7.68 6.144 1.536 11.776 2.56 16.384 5.12 4.096 2.56 8.192 6.656 12.288 11.264 6.144 6.656 12.8 13.824 22.016 16.384 8.704 2.56 17.92-.512 26.624-3.072 4.096-1.536 8.192-2.56 11.776-3.072v22.016zm0-32.256c-5.12.512-10.24 2.048-14.848 3.584-7.68 2.56-14.848 4.608-20.992 3.072s-11.264-7.168-16.896-13.312c-4.608-5.12-9.216-10.24-14.848-13.312-5.632-3.584-12.8-5.12-18.944-6.144-6.144-1.536-11.776-2.56-15.872-5.12l102.4-103.424v134.656zm0-302.592c-3.584-.512-7.68-2.048-12.288-3.072-8.704-3.072-17.408-5.632-26.112-3.072-9.216 2.56-15.872 9.728-22.016 16.384-4.096 4.608-8.192 8.704-12.288 11.264-4.608 2.56-10.24 4.096-16.384 5.12-7.168 1.536-14.336 3.072-20.48 7.168L66.56 58.88c30.72-28.672 71.68-47.104 116.736-48.128v21.504zM317.44 66.048c29.184 30.72 47.616 71.68 49.152 116.736h-21.504c.512-3.584 2.048-7.168 3.072-11.264 2.56-8.704 5.632-17.92 3.072-26.624-2.56-9.216-9.728-15.872-16.384-22.016-4.608-4.096-8.704-8.192-11.264-12.288-2.56-4.608-4.096-10.24-5.12-16.384-1.536-7.68-3.584-15.36-7.68-21.504l6.656-6.656zM193.536 175.616V42.496c5.12-.512 10.24-2.048 14.848-3.584 7.68-2.56 14.848-4.608 20.992-3.072 6.144 1.536 11.264 7.168 16.896 13.312 4.608 5.12 9.216 10.24 14.848 13.312 5.632 3.584 12.8 5.12 19.456 6.144 5.632 1.024 10.752 2.56 15.36 4.608l-102.4 102.4zm109.568-95.232c2.56 4.608 3.584 10.24 5.12 15.872 1.536 6.656 3.072 13.312 6.144 18.944s8.192 10.24 13.312 14.848c6.144 5.632 11.776 10.752 13.312 16.896 1.536 6.144-.512 13.312-3.072 20.992-1.536 4.608-3.072 9.728-3.584 14.336h-133.12L303.104 80.384zm-109.056 120.32l102.4 102.4c-4.608 2.56-10.24 3.584-15.872 5.12-6.656 1.536-13.312 3.072-18.944 6.144s-10.24 8.192-14.848 13.312c-5.632 6.144-10.752 11.776-16.896 13.312s-13.312-.512-20.992-3.072c-5.12-1.536-9.728-3.072-14.848-3.584V200.704zm6.656-7.68h133.632c.512 5.12 2.048 10.752 4.096 15.872 2.56 7.68 4.608 14.848 3.072 20.992-2.048 6.144-7.68 11.264-13.312 16.896-5.12 4.608-10.24 9.216-13.312 14.848-3.584 5.632-5.12 12.8-6.144 18.944-1.024 5.632-2.56 10.752-4.608 15.36L200.704 193.024zm-7.68-182.272h.512c45.056 1.536 86.016 19.456 116.736 48.128l-7.168 7.168c-6.144-4.096-13.312-5.632-20.48-7.168-6.144-1.536-11.776-2.56-16.384-5.12-4.096-2.56-8.192-6.656-12.288-11.264-6.144-6.656-12.8-13.824-22.016-16.384-8.704-2.56-17.92.512-26.624 3.072-4.096 1.536-8.192 2.56-12.288 3.072V10.752zm.512 356.352V345.6c3.584.512 7.68 2.048 11.776 3.072 6.656 2.048 12.8 4.096 19.456 4.096 2.56 0 4.608-.512 7.168-1.024 9.216-2.56 15.872-9.728 22.016-16.384 4.096-4.608 8.192-8.704 12.288-11.264 4.608-2.56 10.24-4.096 16.384-5.12 7.68-1.536 15.36-3.584 21.504-7.68l7.168 7.168c-31.232 28.672-72.192 47.104-117.76 48.64zm124.928-56.32l-7.168-7.168c4.096-6.144 5.632-13.312 7.168-20.48 1.536-6.144 2.56-11.776 5.12-16.384 2.56-4.096 6.656-8.192 11.264-12.288 6.656-6.144 13.824-12.8 16.384-22.016 2.56-8.704-.512-17.92-3.072-26.624-1.536-4.608-2.56-8.704-3.072-12.8h22.016c-1.536 45.568-19.968 86.528-48.64 117.76z"/><path d="M4.563 4.546l367.795 367.812" stroke="#000" stroke-width="12.687"/></svg>