<svg xmlns="http://www.w3.org/2000/svg" viewBox="0 0 512 512"><g fill="#ffd15c"><circle cx="256" cy="256" r="256"/><circle cx="256" cy="256" r="209.067"/></g><ellipse cx="386.133" cy="338.133" rx="34.133" ry="30.933" fill="#ff7058"/><path d="M390.4 315.733c-2.133 2.133-6.4 2.133-8.533 0-2.133-2.133-4.267-2.133-6.4-1.067-9.6 4.267-17.067 12.8-17.067 23.467 0 10.667 6.4 19.2 17.067 23.467 2.133 1.067 5.333 0 6.4-1.067 2.133-2.133 6.4-2.133 8.533 0 2.133 2.133 4.267 2.133 6.4 1.067 9.6-4.267 17.067-12.8 17.067-23.467 0-10.667-6.4-19.2-17.067-23.467-2.133-1.066-4.267.001-6.4 1.067z" fill="#f1543f"/><path d="M376.533 338.133c0 3.2 1.067 5.333 3.2 7.467 1.067 1.067 1.067 2.133 1.067 3.2 0 7.467-9.6 9.6-13.867 4.267-3.2-4.267-6.4-9.6-6.4-14.933 0-6.4 2.133-11.733 6.4-14.933 4.267-5.333 13.867-2.133 13.867 4.267 0 1.067-1.067 2.133-1.067 3.2-2.133 2.132-3.2 4.265-3.2 7.465z" fill="#ff7058"/><path d="M372.267 339.2v-2.133c-1.067-1.067-4.267-1.067-5.333 0l-1.067 1.067 1.067 1.067c1.066 1.066 4.266 1.066 5.333-.001zm3.2-8.533h1.067V329.6c-1.067-2.133-3.2-3.2-5.333-2.133h-1.067v1.067c1.066 2.133 3.199 3.199 5.333 2.133zm-4.267 19.2h-1.067V348.8c1.067-2.133 3.2-3.2 5.333-2.133h1.067v1.067c0 2.133-3.2 3.199-5.333 2.133z" fill="#ffd15c"/><path d="M397.867 338.133c0-2.133-1.067-5.333-3.2-6.4-1.067-1.067-1.067-2.133-1.067-3.2 0-6.4 8.533-8.533 12.8-4.267 3.2 4.267 5.333 8.533 5.333 13.867 0 5.333-2.133 9.6-5.333 13.867-4.267 5.333-12.8 2.133-12.8-4.267 0-1.067 0-2.133 1.067-3.2 2.133-1.066 3.2-3.2 3.2-6.4z" fill="#ff7058"/><path d="M403.2 337.067v2.133c1.067 1.067 4.267 1.067 5.333 0l1.067-1.067-1.067-1.067c-1.066-1.066-4.266-1.066-5.333.001zM400 345.6h-1.067v1.067c1.067 2.133 3.2 3.2 5.333 2.133h1.067v-1.067c-1.066-2.133-3.2-3.2-5.333-2.133zm4.267-19.2h1.067v1.067c-1.067 2.133-3.2 3.2-5.333 2.133h-1.067v-1.067c1.066-2.133 3.199-3.2 5.333-2.133z" fill="#ffd15c"/><ellipse transform="rotate(-58.486 296.695 414.965)" cx="296.698" cy="414.958" rx="30.933" ry="34.133" fill="#ff7058"/><path d="M311.467 397.867c-3.2 1.067-6.4-1.067-7.467-4.267-1.067-2.133-2.133-4.267-5.333-4.267C288 387.2 277.333 391.467 272 401.067c-5.333 8.533-4.267 20.267 2.133 28.8 1.067 2.133 4.267 3.2 6.4 2.133 3.2-1.067 6.4 1.067 7.467 4.267 1.067 2.133 2.133 4.267 5.333 4.267C304 442.667 314.667 438.4 320 428.8c5.333-8.533 4.267-20.267-2.133-28.8-1.067-1.067-3.2-2.133-6.4-2.133z" fill="#f1543f"/><path d="M288 410.667c-1.067 2.133-2.133 5.333-1.067 7.467v3.2c-3.2 6.4-12.8 3.2-14.933-3.2-1.067-5.333 0-11.733 3.2-16 3.2-5.333 7.467-8.533 12.8-9.6 6.4-2.133 12.8 5.333 9.6 11.733-1.067 1.067-2.133 2.133-3.2 2.133-2.133 0-4.267 1.067-6.4 4.267z" fill="#ff7058"/><path d="M283.733 408.533h1.067v-1.067c-1.067-2.133-3.2-3.2-5.333-3.2H278.4v1.067c1.067 2.134 3.2 4.267 5.333 3.2zm7.467-5.333h1.067v-1.067c0-2.133-1.067-4.267-3.2-4.267H288v1.067c0 2.134 1.067 4.267 3.2 4.267zm-13.867 14.933V416c2.133-1.067 4.267-1.067 5.333 1.067l1.067 1.067-1.067 1.067c-1.066-.001-3.199-.001-5.333-1.068z" fill="#ffd15c"/><path d="M306.133 421.333c1.067-2.133 1.067-4.267 1.067-7.467v-3.2c3.2-5.333 11.733-3.2 12.8 3.2 1.067 5.333 0 9.6-3.2 14.933-3.2 4.267-7.467 7.467-11.733 8.533-6.4 2.133-11.733-5.333-8.533-10.667 1.067-1.067 1.067-2.133 3.2-2.133 3.199.001 5.333-1.065 6.399-3.199z" fill="#ff7058"/><path d="M311.467 423.467H310.4v1.067c1.067 2.133 3.2 3.2 5.333 3.2h1.067v-1.067c-1.067-2.134-3.2-4.267-5.333-3.2zM304 428.8h-1.067v1.067c0 2.133 1.067 4.267 3.2 4.267h1.067v-1.067c0-2.134-1.067-4.267-3.2-4.267zm13.867-14.933V416c-2.133 1.067-4.267 1.067-5.333-1.067l-1.067-1.067 1.067-1.067c1.066.001 4.266.001 5.333 1.068z" fill="#ffd15c"/><ellipse cx="292.267" cy="333.867" rx="34.133" ry="30.933" fill="#ff7058"/><path d="M296.533 310.4c-2.133 2.133-6.4 2.133-8.533 0-2.133-2.133-4.267-2.133-6.4-1.067-9.6 4.267-17.067 12.8-17.067 23.467s6.4 19.2 17.067 23.467c2.133 1.067 5.333 0 6.4-1.067 2.133-2.133 6.4-2.133 8.533 0 2.133 2.133 4.267 2.133 6.4 1.067C312.533 352 320 343.467 320 332.8s-6.4-19.2-17.067-23.467c-2.133-1.066-4.266 0-6.4 1.067z" fill="#f1543f"/><path d="M282.667 333.867c0 3.2 1.067 5.333 3.2 7.467 1.067 1.067 1.067 2.133 1.067 3.2 0 7.467-9.6 9.6-13.867 4.267-3.2-4.267-6.4-9.6-6.4-14.933s2.133-11.733 6.4-14.933c4.267-5.333 13.867-2.133 13.867 4.267 0 1.067-1.067 2.133-1.067 3.2-2.134 1.065-3.2 4.265-3.2 7.465z" fill="#ff7058"/><path d="M278.4 333.867v-2.133c-1.067-1.067-4.267-1.067-5.333 0L272 332.8l1.067 1.067c1.066 2.133 4.266 2.133 5.333 0zm3.2-7.467h1.067v-1.067c-1.067-2.133-3.2-3.2-5.333-2.133h-1.067v1.067c1.066 1.066 3.2 2.133 5.333 2.133zm-4.267 19.2h-1.067v-1.067c1.067-2.133 3.2-3.2 5.333-2.133h1.067v1.067c-1.066 1.066-3.199 2.133-5.333 2.133z" fill="#ffd15c"/><path d="M304 333.867c0-2.133-1.067-5.333-3.2-6.4-1.067-1.067-1.067-2.133-1.067-3.2 0-6.4 8.533-8.533 12.8-4.267 3.2 4.267 5.333 8.533 5.333 13.867s-2.133 9.6-5.333 13.867c-4.267 5.333-12.8 2.133-12.8-4.267 0-1.067 0-2.133 1.067-3.2 2.133-2.134 3.2-4.267 3.2-6.4z" fill="#ff7058"/><path d="M309.333 332.8v2.133c1.067 1.067 4.267 1.067 5.333 0l1.067-1.067-1.067-1.067c-1.066-2.132-4.266-2.132-5.333.001zm-3.2 7.467h-1.067v1.067c1.067 2.133 3.2 3.2 5.333 2.133h1.067V342.4c-1.066-1.067-3.199-2.133-5.333-2.133zm4.267-19.2h1.067v1.067c-1.067 2.133-3.2 3.2-5.333 2.133h-1.067V323.2c0-1.067 3.2-2.133 5.333-2.133z" fill="#ffd15c"/><ellipse transform="rotate(-143.016 107.573 304.615)" cx="107.573" cy="304.616" rx="30.933" ry="34.133" fill="#ff7058"/><path d="M92.8 288c0 3.2-2.133 6.4-5.333 6.4-2.133 0-4.267 2.133-5.333 4.267-3.2 10.667 0 21.333 8.533 27.733 8.533 6.4 20.267 6.4 28.8 1.067 2.133-1.067 3.2-3.2 3.2-6.4s2.133-6.4 5.333-6.4c2.133 0 4.267-2.133 5.333-4.267 3.2-10.667 0-21.333-8.533-27.733-8.533-6.4-20.267-6.4-28.8-1.067-2.133 1.067-3.2 3.2-3.2 6.4z" fill="#f1543f"/><path d="M102.4 312.533c2.133 2.133 5.333 2.133 7.467 2.133 1.067 0 2.133 0 3.2 1.067C118.4 320 115.2 329.6 108.8 329.6c-5.333 0-11.733-1.067-16-4.267s-7.467-9.6-8.533-14.933c-1.067-7.467 6.4-12.8 12.8-8.533 1.067 1.067 2.133 2.133 2.133 3.2 0 3.2 1.067 5.333 3.2 7.466z" fill="#ff7058"/><path d="M100.267 315.733v-1.067H99.2c-2.133 1.067-3.2 3.2-3.2 5.333v1.067h1.067c2.133-1.066 3.2-3.199 3.2-5.333zM96 308.267V307.2h-1.067c-2.133-1.067-4.267 1.067-5.333 3.2v1.067h1.067c2.133 0 5.333-1.067 5.333-3.2zm12.8 14.933l-1.067 1.067-1.067-1.067c-1.067-2.133-1.067-4.267 1.067-5.333l1.067-1.067 1.067 1.067c1.066 2.133 1.066 4.266-1.067 5.333z" fill="#ffd15c"/><path d="M115.2 295.467c-2.133-1.067-4.267-2.133-7.467-1.067-1.067 0-2.133 0-3.2-1.067-5.333-4.267-2.133-11.733 4.267-12.8 5.333 0 9.6 1.067 13.867 4.267 4.267 3.2 6.4 7.467 7.467 12.8 1.067 6.4-6.4 11.733-10.667 7.467-1.067-1.067-1.067-2.133-2.133-3.2 1.066-2.134-.001-5.334-2.134-6.4z" fill="#ff7058"/><path d="M117.333 290.133v1.067h1.067c2.133 0 3.2-2.133 3.2-4.267v-1.067h-1.067c-1.066.001-3.2 2.134-3.2 4.267zm4.267 7.467v1.067h1.067c2.133 1.067 4.267-1.067 5.333-3.2V294.4h-1.067c-2.133 0-4.266 2.133-5.333 3.2zm-11.733-13.867l1.067-1.067 1.067 1.067c1.067 2.133 1.067 4.267-1.067 5.333l-1.067 1.067-1.067-1.067c-2.133-2.133-1.067-4.266 1.067-5.333z" fill="#ffd15c"/><ellipse transform="rotate(-51.895 183.318 309.598)" cx="183.315" cy="309.602" rx="30.934" ry="34.134" fill="#ff7058"/><path d="M200.533 294.4c-3.2 0-6.4-2.133-6.4-5.333 0-2.133-2.133-4.267-4.267-5.333-10.667-3.2-21.333 0-27.733 8.533-6.4 8.533-6.4 20.267-1.067 28.8 1.067 2.133 3.2 3.2 6.4 3.2s6.4 2.133 6.4 5.333c0 2.133 2.133 4.267 4.267 5.333 10.667 3.2 21.333 0 27.733-8.533 6.4-8.533 6.4-20.267 1.067-28.8-2.133-2.133-4.266-3.2-6.4-3.2z" fill="#f1543f"/><path d="M174.933 302.933c-2.133 2.133-2.133 5.333-2.133 7.467 0 1.067 0 2.133-1.067 3.2-4.267 5.333-13.867 2.133-13.867-5.333 0-5.333 1.067-11.733 5.333-16s8.533-7.467 13.867-8.533c7.467-1.067 12.8 7.467 8.533 12.8-1.067 1.067-2.133 2.133-3.2 2.133-2.132 1.066-5.332 2.133-7.466 4.266z" fill="#ff7058"/><path d="M171.733 300.8h1.067v-1.067c0-2.133-2.133-3.2-4.267-3.2h-1.067v1.067c.001 2.133 2.134 4.267 4.267 3.2zm7.467-3.2h1.067v-1.067c1.067-2.133 0-4.267-2.133-5.333h-1.067v1.067c-1.067 2.133 0 4.266 2.133 5.333zm-14.933 11.733l-1.067-1.067 1.067-1.067c2.133-1.067 4.267 0 5.333 1.067l1.067 1.067-1.067 1.067c-2.133 1.067-4.267 1.067-5.333-1.067z" fill="#ffd15c"/><path d="M192 315.733c1.067-2.133 2.133-4.267 2.133-7.467 0-1.067 0-2.133 1.067-3.2 4.267-5.333 11.733-2.133 12.8 4.267 0 5.333-1.067 9.6-4.267 13.867-3.2 4.267-7.467 6.4-12.8 7.467-6.4 1.067-10.667-6.4-7.467-10.667 1.067-1.067 2.133-1.067 3.2-1.067 1.067 0 3.201-1.066 5.334-3.2z" fill="#ff7058"/><path d="M197.333 318.933h-1.067V320c0 2.133 2.133 3.2 4.267 3.2h1.067v-1.067c-1.067-2.133-2.133-3.2-4.267-3.2zM188.8 323.2h-1.067v1.067c-1.067 2.133 0 4.267 2.133 5.333h1.067v-1.067c1.067-2.133 0-4.266-2.133-5.333zm14.933-12.8l1.067 1.067-1.067 1.067c-2.133 1.067-4.267 0-5.333-1.067l-1.067-1.067 1.067-1.067c2.133-1.066 4.267 0 5.333 1.067z" fill="#ffd15c"/><ellipse cx="334.933" cy="230.4" rx="34.133" ry="30.933" fill="#ff7058"/><path d="M339.2 208c-2.133 2.133-6.4 2.133-8.533 0-2.133-2.133-4.267-2.133-6.4-1.067-9.6 4.267-17.067 12.8-17.067 23.467s6.4 19.2 17.067 23.467c2.133 1.067 5.333 0 6.4-1.067 2.133-2.133 6.4-2.133 8.533 0 2.133 2.133 4.267 2.133 6.4 1.067 9.6-4.267 17.067-12.8 17.067-23.467s-6.4-19.2-17.067-23.467c-2.133-1.066-5.333 0-6.4 1.067z" fill="#f1543f"/><path d="M325.333 230.4c0 3.2 1.067 5.333 3.2 7.467 1.067 1.067 1.067 2.133 1.067 3.2 0 7.467-9.6 9.6-13.867 4.267-3.2-4.267-6.4-9.6-6.4-14.933s2.133-11.733 6.4-14.933c4.267-5.333 13.867-2.133 13.867 4.267 0 1.067-1.067 2.133-1.067 3.2-2.133 2.132-3.2 5.332-3.2 7.465z" fill="#ff7058"/><path d="M321.067 231.467v-2.133c-1.067-1.067-4.267-1.067-5.333 0l-1.067 1.067 1.067 1.067c1.066 1.065 3.199 1.065 5.333-.001zm3.2-7.467h1.067v-1.067c-1.067-2.133-3.2-3.2-5.333-2.133h-1.067v1.067c1.066 1.066 3.199 2.133 5.333 2.133zM320 242.133h-1.067v-1.067c1.067-2.133 3.2-3.2 5.333-2.133h1.067V240c-1.066 2.133-3.2 3.2-5.333 2.133z" fill="#ffd15c"/><path d="M345.6 230.4c0-2.133-1.067-5.333-3.2-6.4-1.067-1.067-1.067-2.133-1.067-3.2 0-6.4 8.533-8.533 12.8-4.267 3.2 4.267 5.333 8.533 5.333 13.867s-2.133 9.6-5.333 13.867c-4.267 5.333-12.8 2.133-12.8-4.267 0-1.067 0-2.133 1.067-3.2 2.133-1.067 3.2-3.2 3.2-6.4z" fill="#ff7058"/><path d="M352 229.333v2.133c1.067 1.067 4.267 1.067 5.333 0l1.067-1.067-1.067-1.067c-2.133-1.065-4.266-1.065-5.333.001zm-4.267 8.534h-1.067v1.067c1.067 2.133 3.2 3.2 5.333 2.133h1.067V240c-1.066-2.133-3.199-3.2-5.333-2.133zm4.267-19.2h1.067v1.067c-1.067 2.133-3.2 3.2-5.333 2.133h-1.067V220.8c1.066-2.133 3.2-3.2 5.333-2.133z" fill="#ffd15c"/><ellipse transform="rotate(-105.527 195.313 215.54)" cx="195.313" cy="215.539" rx="30.933" ry="34.133" fill="#ff7058"/><path d="M194.133 192c-2.133 3.2-5.333 4.267-8.533 2.133-2.133-1.067-4.267-1.067-6.4 1.067-8.533 6.4-12.8 17.067-9.6 27.733C172.8 233.6 181.333 240 192 241.067c2.133 0 5.333-1.067 6.4-3.2 2.133-3.2 5.333-4.267 8.533-2.133 2.133 1.067 4.267 1.067 6.4-1.067 8.533-6.4 12.8-17.067 9.6-27.733-3.2-10.667-11.733-17.067-22.4-18.133-3.2-.001-5.333 1.066-6.4 3.199z" fill="#f1543f"/><path d="M186.667 217.6c1.067 3.2 3.2 5.333 5.333 6.4 1.067 1.067 2.133 2.133 2.133 3.2 2.133 6.4-6.4 11.733-12.8 8.533-4.267-3.2-8.533-7.467-9.6-12.8-1.067-5.333-1.067-11.733 2.133-16 3.2-6.4 12.8-6.4 14.933 1.067 0 1.067 0 2.133-1.067 3.2-2.132 1.067-2.132 3.2-1.065 6.4z" fill="#ff7058"/><path d="M182.4 219.733l1.067-1.067-2.133-1.067c-2.133-1.067-4.267 0-5.333 1.067l-1.067 1.067L176 220.8c3.2 1.067 5.333 1.067 6.4-1.067zm1.067-8.533l1.067-1.067-1.067-1.067c-1.067-2.133-3.2-2.133-5.333-1.067l-1.067 1.067 1.067 1.067c1.066 2.134 3.199 2.134 5.333 1.067zm1.066 19.2h-1.067v-1.067c0-2.133 2.133-3.2 4.267-3.2h1.067v1.067c0 2.133-2.133 3.2-4.267 3.2z" fill="#ffd15c"/><path d="M205.867 212.267c-1.067-2.133-2.133-4.267-4.267-5.333-1.067 0-2.133-1.067-2.133-2.133-2.133-6.4 5.333-10.667 10.667-7.467 4.267 3.2 7.467 6.4 8.533 11.733 1.067 5.333 1.067 10.667-1.067 14.933-3.2 5.333-11.733 5.333-12.8-1.067v-3.2c2.133-2.133 2.133-5.333 1.067-7.466z" fill="#ff7058"/><path d="M211.2 210.133l-1.067 1.067 1.067 1.067c2.133 1.067 4.267 0 5.333-1.067l1.067-1.067-1.067-1.067c-1.066-2.133-4.266-1.066-5.333 1.067zm-1.067 8.534l-1.067 1.067 1.067 1.067c1.067 2.133 3.2 2.133 5.333 1.067l1.067-1.067-1.067-1.067c-1.066-2.134-3.199-2.134-5.333-1.067zm-1.066-20.267h1.067v1.067c0 2.133-2.133 3.2-4.267 3.2H204.8V201.6c0-1.067 2.133-3.2 4.267-3.2z" fill="#ffd15c"/><ellipse cx="275.2" cy="98.133" rx="34.133" ry="30.933" fill="#ff7058"/><path d="M279.467 75.733c-2.133 2.133-6.4 2.133-8.533 0-1.067-2.133-4.267-2.133-6.4-1.067-9.6 4.267-17.067 12.8-17.067 23.467s6.4 19.2 17.067 23.467c2.133 1.067 5.333 0 6.4-1.067 2.133-2.133 6.4-2.133 8.533 0 2.133 2.133 4.267 2.133 6.4 1.067 9.6-4.267 17.067-12.8 17.067-23.467s-6.4-20.267-16-23.467c-3.201-1.066-5.334-1.066-7.467 1.067z" fill="#f1543f"/><path d="M265.6 98.133c0 3.2 1.067 5.333 3.2 7.467 1.067 1.067 1.067 2.133 1.067 3.2 0 7.467-9.6 9.6-13.867 4.267-3.2-4.267-6.4-9.6-6.4-14.933 0-6.4 2.133-11.733 6.4-14.933 4.267-5.333 13.867-2.133 13.867 4.267 0 1.067-1.067 2.133-1.067 3.2-2.133 2.132-3.2 4.265-3.2 7.465z" fill="#ff7058"/><path d="M261.333 99.2v-2.133c-1.067-1.067-4.267-1.067-5.333 0l-1.067 1.067L256 99.2c1.067 1.067 4.267 1.067 5.333 0zm3.2-8.533h1.067V89.6c-1.067-2.133-3.2-3.2-5.333-2.133H259.2v1.067c1.067 2.133 4.267 3.199 5.333 2.133zm-4.266 19.2H259.2V108.8c1.067-2.133 3.2-3.2 5.333-2.133h1.067v1.067c0 2.133-3.2 3.199-5.333 2.133z" fill="#ffd15c"/><path d="M286.933 98.133c0-2.133-1.067-5.333-3.2-6.4-1.067-1.067-1.067-2.133-1.067-3.2 0-6.4 8.533-8.533 12.8-4.267 3.2 4.267 5.333 8.533 5.333 13.867s-2.133 9.6-5.333 13.867c-4.267 5.333-12.8 2.133-12.8-4.267 0-1.067 0-2.133 1.067-3.2 2.134-2.133 3.2-4.266 3.2-6.4z" fill="#ff7058"/><path d="M292.267 97.067V99.2c1.067 1.067 4.267 1.067 5.333 0l1.067-1.067-1.067-1.067c-1.067-1.066-3.2-1.066-5.333.001zm-3.2 8.533H288v1.067c1.067 2.133 3.2 3.2 5.333 2.133h1.067v-1.067c-1.067-2.133-3.2-3.2-5.333-2.133zm4.266-19.2h1.067v1.067c-1.067 2.133-3.2 3.2-5.333 2.133H288v-1.067c1.067-2.133 3.2-3.2 5.333-2.133z" fill="#ffd15c"/><ellipse cx="397.867" cy="172.8" rx="34.133" ry="30.933" fill="#ff7058"/><path d="M402.133 150.4c-2.133 2.133-6.4 2.133-8.533 0-2.133-2.133-4.267-2.133-6.4-1.067-9.6 4.267-17.067 12.8-17.067 23.467 0 10.667 6.4 19.2 17.067 23.467 2.133 1.067 5.333 0 6.4-1.067 2.133-2.133 6.4-2.133 8.533 0 2.133 2.133 4.267 2.133 6.4 1.067 9.6-4.267 17.067-12.8 17.067-23.467 0-10.667-6.4-19.2-17.067-23.467-2.133-1.066-4.266 0-6.4 1.067z" fill="#f1543f"/><path d="M388.267 172.8c0 3.2 1.067 5.333 3.2 7.467 1.067 1.067 1.067 2.133 1.067 3.2 0 7.467-9.6 9.6-13.867 4.267-3.2-4.267-6.4-9.6-6.4-14.933s2.133-11.733 6.4-14.933c4.267-5.333 13.867-2.133 13.867 4.267 0 1.067-1.067 2.133-1.067 3.2-2.134 2.132-3.2 4.265-3.2 7.465z" fill="#ff7058"/><path d="M384 173.867v-2.133c-1.067-1.067-4.267-1.067-5.333 0L377.6 172.8l1.067 1.067c1.066 1.066 4.266 1.066 5.333 0zm3.2-8.534h1.067v-1.067c-1.067-2.133-3.2-3.2-5.333-2.133h-1.067v1.067c1.066 2.133 3.2 3.2 5.333 2.133zm-4.267 19.2h-1.067v-1.067c1.067-2.133 3.2-3.2 5.333-2.133h1.067v1.067c-1.066 2.133-3.199 3.2-5.333 2.133z" fill="#ffd15c"/><path d="M409.6 172.8c0-2.133-1.067-5.333-3.2-6.4-1.067-1.067-1.067-2.133-1.067-3.2 0-6.4 8.533-8.533 12.8-4.267 3.2 4.267 5.333 8.533 5.333 13.867 0 5.333-2.133 9.6-5.333 13.867-4.267 5.333-12.8 2.133-12.8-4.267 0-1.067 0-2.133 1.067-3.2 2.133-1.067 3.2-3.2 3.2-6.4z" fill="#ff7058"/><path d="M414.933 171.733v2.133c1.067 1.067 4.267 1.067 5.333 0l1.067-1.067-1.067-1.067c-1.066-1.065-4.266-1.065-5.333.001zm-3.2 8.534h-1.067v1.067c1.067 2.133 3.2 3.2 5.333 2.133h1.067V182.4c-1.066-2.133-3.199-3.2-5.333-2.133zm4.267-19.2h1.067v1.067c-1.067 2.133-3.2 3.2-5.333 2.133h-1.067V163.2c1.066-2.133 3.2-3.2 5.333-2.133z" fill="#ffd15c"/><ellipse cx="144" cy="164.267" rx="34.133" ry="30.933" fill="#ff7058"/><path d="M148.267 141.867c-2.133 2.133-6.4 2.133-8.533 0-2.133-2.133-4.267-2.133-6.4-1.067-9.6 4.267-17.067 12.8-17.067 23.467 0 10.667 6.4 19.2 17.067 23.467 2.133 1.067 5.333 0 6.4-1.067 2.133-2.133 6.4-2.133 8.533 0 2.133 2.133 4.267 2.133 6.4 1.067 9.6-4.267 17.067-12.8 17.067-23.467s-6.4-19.2-17.067-23.467c-2.134-1.067-4.267-1.067-6.4 1.067z" fill="#f1543f"/><path d="M134.4 164.267c0 3.2 1.067 5.333 3.2 7.467 1.067 1.067 1.067 2.133 1.067 3.2 0 7.467-9.6 9.6-13.867 4.267-3.2-4.267-6.4-9.6-6.4-14.933 0-6.4 2.133-11.733 6.4-14.933 4.267-5.333 13.867-2.133 13.867 4.267 0 1.067-1.067 2.133-1.067 3.2-2.133 1.065-3.2 4.265-3.2 7.465z" fill="#ff7058"/><path d="M130.133 164.267v-2.133c-1.067-1.067-4.267-1.067-5.333 0l-1.067 1.067 1.067 1.067c1.067 2.132 3.2 2.132 5.333-.001zm3.2-7.467h1.067v-1.067c-1.067-2.133-3.2-3.2-5.333-2.133H128v1.067c1.067 2.133 3.2 3.2 5.333 2.133zm-4.266 19.2H128v-1.067c1.067-2.133 3.2-3.2 5.333-2.133h1.067v1.067c-1.067 1.066-3.2 2.133-5.333 2.133z" fill="#ffd15c"/><path d="M155.733 164.267c0-2.133-1.067-5.333-3.2-6.4-1.067-1.067-1.067-2.133-1.067-3.2 0-6.4 8.533-8.533 12.8-4.267 3.2 4.267 5.333 8.533 5.333 13.867 0 5.333-2.133 9.6-5.333 13.867-4.267 5.333-12.8 2.133-12.8-4.267 0-1.067 0-2.133 1.067-3.2 1.067-2.134 3.2-4.267 3.2-6.4z" fill="#ff7058"/><path d="M161.067 163.2v2.133c1.067 1.067 4.267 1.067 5.333 0l1.067-1.067-1.067-1.066c-1.067-2.133-4.267-2.133-5.333 0zm-3.2 7.467H156.8v1.067c1.067 2.133 3.2 3.2 5.333 2.133h1.067V172.8c-1.067-1.067-4.267-2.133-5.333-2.133zm4.266-19.2h1.067v1.067c-1.067 2.133-3.2 3.2-5.333 2.133H156.8V153.6c0-1.067 3.2-2.133 5.333-2.133z" fill="#ffd15c"/><path d="M341.333 402.133c-1.067-7.467 6.4-14.933 14.933-16 8.533-1.067 19.2 3.2 19.2 10.667 1.067 7.467-9.6 14.933-18.133 16-7.466 0-14.933-3.2-16-10.667z" fill="#40596b"/><circle cx="366.933" cy="396.8" r="3.2" fill="#334a5e"/><path d="M330.667 277.333c7.467-2.133 16 3.2 18.133 11.733 2.133 8.533 0 19.2-7.467 21.333-7.467 2.133-16-7.467-18.133-14.933-1.067-8.533 1.067-17.066 7.467-18.133z" fill="#40596b"/><circle cx="340.267" cy="300.8" r="3.2" fill="#334a5e"/><path d="M234.667 408.533c7.467-2.133 16 3.2 18.133 11.733 2.133 8.533 0 19.2-7.467 21.333-7.467 2.133-16-7.467-18.133-14.933-2.133-7.466 0-15.999 7.467-18.133z" fill="#40596b"/><circle cx="243.2" cy="433.067" r="3.2" fill="#334a5e"/><path d="M235.733 356.267c-5.333 5.333-16 5.333-21.333 0s-9.6-17.067-5.333-21.333 17.067-2.133 23.467 3.2c6.399 5.333 8.533 13.866 3.199 18.133z" fill="#40596b"/><circle cx="215.467" cy="341.333" r="3.2" fill="#334a5e"/><path d="M254.933 160c-4.267-6.4-2.133-16 4.267-21.333 6.4-5.333 18.133-6.4 22.4-1.067 4.267 6.4 0 18.133-7.467 22.4-7.466 4.267-14.933 5.333-19.2 0z" fill="#40596b"/><circle cx="273.067" cy="141.867" r="3.2" fill="#334a5e"/><path d="M298.667 217.6c-5.333 5.333-16 5.333-21.333 0-5.333-5.333-9.6-17.067-5.333-21.333s17.067-2.133 23.467 3.2c5.332 5.333 7.465 12.8 3.199 18.133z" fill="#40596b"/><circle cx="278.4" cy="201.6" r="3.2" fill="#334a5e"/><path d="M441.6 215.467c1.067 7.467-6.4 14.933-13.867 16-8.533 1.067-19.2-3.2-20.267-10.667-1.067-7.467 9.6-14.933 18.133-16 8.534-1.067 16.001 3.2 16.001 10.667z" fill="#40596b"/><circle cx="417.067" cy="220.8" r="3.2" fill="#334a5e"/><path d="M233.6 92.8c-7.467-18.133-27.733-25.6-45.867-18.133-17.067 7.467-25.6 28.8-17.067 46.933 2.133 4.267 2.133 2.133 5.333 5.333 2.133 2.133 6.4 3.2 9.6 2.133 5.333-2.133 11.733 1.067 12.8 7.467l2.133 9.6c1.067 6.4 7.467 9.6 12.8 7.467l12.8-5.333c5.333-2.133 7.467-9.6 4.267-13.867l-5.333-7.467c-3.2-5.333-1.067-11.733 4.267-13.867 3.2-1.067 5.333-4.267 5.333-8.533.001-7.466 1.067-7.466-1.066-11.733z" fill="#fff"/><path d="M224 141.867l-12.8 5.333c-4.267 2.133-8.533 0-11.733-3.2 1.067 6.4 7.467 9.6 12.8 7.467l12.8-5.333c5.333-2.133 7.467-9.6 4.267-13.867 1.066 4.266-1.067 8.533-5.334 9.6zM197.333 131.2c-1.067-6.4-7.467-9.6-12.8-7.467-3.2 1.067-7.467 1.067-9.6-2.133-2.133-2.133-3.2-2.133-4.267-4.267 0 1.067 0 2.133 1.067 2.133 2.133 4.267 2.133 2.133 5.333 5.333 2.133 2.133 6.4 3.2 9.6 2.133 3.201-1.065 8.534 1.068 10.667 4.268zm35.2-33.067c0 3.2-2.133 6.4-5.333 8.533-5.333 2.133-7.467 9.6-4.267 13.867-1.067-4.267 1.067-8.533 5.333-10.667 3.2-1.067 5.333-4.267 5.333-8.533 0-4.267 1.067-4.267-1.067-8.533 0 0 0-1.067-1.067-1.067 2.135 2.134 1.068 3.2 1.068 6.4z" opacity=".1" fill="#231f20"/><path d="M362.667 160c12.8-14.933 10.667-36.267-4.267-49.067-14.933-11.733-37.333-9.6-49.067 5.333-2.133 3.2-1.067 3.2-2.133 7.467-1.067 3.2 0 7.467 3.2 9.6 4.267 4.267 4.267 10.667 0 14.933l-7.467 5.333c-4.267 3.2-5.333 10.667 0 14.933l10.667 8.533c4.267 4.267 11.733 2.133 13.867-3.2l4.267-8.533c3.2-5.333 9.6-6.4 13.867-3.2 3.2 2.133 6.4 3.2 9.6 1.067 4.266-1.066 4.266.001 7.466-3.199z" fill="#fff"/><path d="M314.667 173.867L304 165.333c-3.2-3.2-4.267-7.467-2.133-11.733-4.267 3.2-5.333 10.667 0 14.933l10.667 8.533c4.267 4.267 11.733 2.133 13.867-3.2-3.201 3.201-7.468 3.201-11.734.001zm-3.2-28.8c5.333-3.2 5.333-10.667 0-14.933-2.133-2.133-3.2-6.4-2.133-9.6 1.067-3.2 0-4.267 2.133-6.4l-2.133 2.133c-2.133 3.2-1.067 3.2-2.133 7.467-1.067 3.2 0 7.467 3.2 9.6 3.199 3.199 3.199 7.466 1.066 11.733zm46.933 16c-3.2 2.133-7.467 1.067-9.6-1.067-4.267-4.267-11.733-2.133-13.867 3.2 3.2-2.133 8.533-3.2 11.733 0 3.2 2.133 6.4 3.2 9.6 1.067 4.267-2.133 4.267-1.067 7.467-4.267l1.067-1.067-6.4 2.134z" opacity=".1" fill="#231f20"/><path d="M379.733 288c9.6 16 32 21.333 48 10.667 16-10.667 21.333-33.067 9.6-49.067-2.133-3.2-3.2-2.133-6.4-4.267-3.2-2.133-6.4-2.133-9.6 0-5.333 3.2-11.733 1.067-13.866-5.333l-2.133-7.467C403.2 227.2 396.8 224 391.467 227.2l-11.733 7.467c-5.333 3.2-6.4 10.667-2.133 14.933l6.4 6.4c4.267 4.267 3.2 11.733-2.133 14.933-3.2 2.133-5.333 5.333-4.267 8.533 1.066 4.267-.001 4.267 2.132 8.534z" fill="#fff"/><path d="M381.867 237.867L393.6 230.4c4.267-2.133 8.533-1.067 11.733 2.133C403.2 227.2 396.8 224 391.467 227.2l-11.733 7.467c-5.333 3.2-6.4 10.667-2.133 14.933-1.068-4.267-.001-9.6 4.266-11.733zm28.8 6.4c2.133 5.333 8.533 8.533 13.867 5.333 3.2-2.133 7.467-2.133 9.6 0 3.2 2.133 3.2 1.067 5.333 3.2 0-1.067-1.067-2.133-1.067-2.133-2.133-3.2-3.2-2.133-6.4-4.267-3.2-2.133-6.4-2.133-9.6 0-4.267 2.133-9.6 1.067-11.733-2.133zm-30.934 38.4c0-3.2 1.067-7.467 4.267-8.533 5.333-3.2 6.4-10.667 2.133-14.933 1.067 4.267 0 8.533-4.267 10.667-3.2 2.133-5.333 5.333-4.267 8.533 1.067 4.267 0 4.267 2.133 8.533L380.8 288c-1.067-1.067 0-2.133-1.067-5.333z" opacity=".1" fill="#231f20"/><path d="M177.067 423.467c19.2 1.067 36.267-12.8 37.333-32 1.067-19.2-14.933-36.267-33.067-36.267-4.267 0-3.2 1.067-7.467 2.133-3.2 1.067-5.333 4.267-6.4 8.533 0 6.4-6.4 9.6-11.733 8.533l-8.533-3.2c-5.333-2.133-11.733 2.133-11.733 8.533L134.4 393.6c0 6.4 5.333 10.667 10.667 9.6l9.6-1.067c6.4-1.067 10.667 4.267 10.667 9.6 0 3.2 1.067 7.467 4.267 8.533 3.199 2.134 2.132 3.201 7.466 3.201z" fill="#fff"/><path d="M137.6 392.533l1.067-13.867c0-4.267 4.267-8.533 8.533-8.533-5.333-2.133-11.733 2.133-11.733 8.533l-1.067 13.867c0 6.4 5.333 10.667 10.667 9.6-5.334-1.066-8.534-4.266-7.467-9.6zm21.333-19.2c6.4 2.133 11.733-2.133 11.733-8.533 0-3.2 2.133-6.4 6.4-8.533 3.2-1.067 3.2-2.133 5.333-2.133h-3.2c-4.267 0-3.2 1.067-7.467 2.133-3.2 1.067-5.333 4.267-6.4 8.533 1.068 4.267-2.132 7.467-6.399 8.533zm13.867 46.934c-3.2-2.133-5.333-5.333-4.267-8.533 0-6.4-5.333-10.667-10.667-9.6 4.267 1.067 7.467 5.333 6.4 9.6 0 3.2 1.067 7.467 4.267 8.533 4.267 2.133 3.2 3.2 8.533 3.2h2.133c-3.199-1.067-3.199-2.134-6.399-3.2z" opacity=".1" fill="#231f20"/><path d="M279.467 284.8c13.867-12.8 14.933-35.2 1.067-49.067-12.8-13.867-36.267-13.867-50.133 0-3.2 3.2-1.067 3.2-3.2 6.4-1.067 3.2-1.067 7.467 2.133 9.6 4.267 4.267 3.2 11.733-2.133 14.933l-8.533 4.267c-5.333 3.2-6.4 9.6-2.133 14.933l9.6 10.667c4.267 4.267 11.733 4.267 14.933-1.067L246.4 288c3.2-5.333 10.667-5.333 14.933-1.067 2.133 2.133 6.4 4.267 9.6 2.133 5.334-2.133 5.334-1.066 8.534-4.266z" fill="#fff"/><path d="M230.4 293.333l-9.6-10.667c-3.2-3.2-3.2-8.533-1.067-11.733-5.333 3.2-6.4 9.6-2.133 14.933l9.6 10.667c4.267 4.267 11.733 4.267 14.933-1.067-3.2 1.067-8.533 1.067-11.733-2.133zm1.067-29.866c5.333-3.2 6.4-10.667 2.133-14.933-2.133-2.133-3.2-6.4-2.133-9.6 1.067-3.2 1.067-4.267 2.133-5.333l-2.133 2.133c-3.2 3.2-2.133 3.2-3.2 6.4-1.067 3.2-1.067 7.467 2.133 9.6 3.2 3.199 3.2 8.533 1.067 11.733zm43.733 22.4c-3.2 1.067-7.467 0-9.6-2.133-4.267-4.267-11.733-4.267-14.933 1.067 3.2-2.133 8.533-2.133 11.733 1.067 2.133 2.133 6.4 4.267 9.6 2.133 4.267-1.067 4.267 0 8.533-4.267l1.067-1.067c-2.133 2.133-3.2 2.133-6.4 3.2z" opacity=".1" fill="#231f20"/><path d="M130.133 201.6c-17.067-8.533-38.4-1.067-45.867 17.067-8.533 17.067 0 38.4 18.133 45.867 4.267 2.133 3.2 0 7.467 1.067 3.2 0 6.4-2.133 8.533-5.333 2.133-5.333 9.6-7.467 13.867-3.2l7.467 5.333c4.267 4.267 11.733 2.133 13.867-3.2l6.4-12.8c2.133-5.333 0-11.733-6.4-12.8l-9.6-2.133c-5.333-1.067-8.533-7.467-6.4-12.8 1.067-3.2 1.067-7.467-1.067-9.6-3.2-4.268-2.133-5.335-6.4-7.468z" fill="#fff"/><path d="M155.733 244.267l-6.4 12.8c-2.133 4.267-6.4 6.4-10.667 5.333 4.267 4.267 11.733 2.133 13.867-3.2l6.4-12.8c2.133-5.333 0-11.733-6.4-12.8 3.2 2.133 5.334 6.4 3.2 10.667zM128 254.933c-5.333-4.267-11.733-2.133-13.867 3.2-1.067 3.2-5.333 5.333-8.533 5.333s-4.267 1.067-6.4 0c1.067 0 1.067 1.067 2.133 1.067 4.267 2.133 3.2 0 7.467 1.067 3.2 0 6.4-2.133 8.533-5.333 2.134-5.334 6.4-6.4 10.667-5.334zm4.267-49.066c2.133 3.2 3.2 6.4 1.067 9.6-2.133 5.333 0 11.733 6.4 12.8-3.2-2.133-5.333-7.467-3.2-11.733 1.067-3.2 1.067-7.467-1.067-9.6-3.2-3.2-2.133-4.267-6.4-6.4 0 0-1.067 0-1.067-1.067 2.133 3.2 2.133 4.266 4.267 6.4zM261.333 50.133c-60.8 0-115.2 27.733-151.467 70.4 35.2-29.867 81.067-49.067 130.133-49.067 110.933 0 200.533 89.6 200.533 200.533 0 50.133-18.133 94.933-49.067 130.133 42.667-36.267 70.4-90.667 70.4-151.467.002-110.932-89.598-200.532-200.532-200.532z" opacity=".1" fill="#231f20"/><path d="M256 477.867c-122.667 0-221.867-99.2-221.867-221.867S133.333 34.133 256 34.133 477.867 133.333 477.867 256 378.667 477.867 256 477.867zm0-422.4c-110.933 0-200.533 89.6-200.533 200.533S145.067 456.533 256 456.533 456.533 366.933 456.533 256 366.933 55.467 256 55.467z" fill="#ff7058"/></svg>