<svg xmlns="http://www.w3.org/2000/svg" viewBox="0 0 214.305 214.305" width="512" height="512"><g fill="#f60"><path d="M214.278 155.58a3.641 3.641 0 0 0-.229-1.137c-.03-.082-.05-.166-.086-.245-.02-.044-.026-.093-.048-.137l-36.949-73.898a3.696 3.696 0 0 0-3.305-2.042h-40.824c-.841-8.862-5.378-14.134-10.581-18.864-5.979-5.434-9.584-8.714 4.337-27.297a3.688 3.688 0 0 0-.74-5.171 3.693 3.693 0 0 0-5.171.74c-16.667 22.242-11.922 29.444-3.399 37.194 3.505 3.186 7.226 6.628 8.107 13.398h-14.43c-1.272-4.748-3.199-8.868-5.039-12.766-4.196-8.898-7.513-15.924-2.071-28.228a3.69 3.69 0 0 0-1.884-4.871 3.695 3.695 0 0 0-4.871 1.884c-6.813 15.393-2.259 25.038 2.143 34.369 1.491 3.16 2.943 6.265 4.024 9.613H96.71c-1.573-10.308-7.394-15.689-12.29-20.142-7.57-6.881-12.142-11.038 5.156-34.124a3.688 3.688 0 0 0-.74-5.171 3.693 3.693 0 0 0-5.171.74C63.82 45.91 69.11 54.05 79.448 63.45c4.008 3.644 8.246 7.554 9.766 14.671h-48.57c-1.4 0-2.677.79-3.305 2.042L.39 154.062c-.022.044-.028.092-.048.137-.036.079-.055.162-.085.244-.137.37-.215.75-.229 1.137-.003.047-.028.086-.028.134v36.949a3.693 3.693 0 0 0 3.695 3.695H210.61a3.693 3.693 0 0 0 3.695-3.695v-36.949c0-.048-.025-.086-.027-.134zM42.928 85.511h46.847c-.317 7.206-2.797 16.867-8.833 30.378a3.695 3.695 0 1 0 6.749 3.016c6.441-14.42 9.041-25.131 9.378-33.395h7.768c.473 4.716.012 10.119-2.063 16.8a3.697 3.697 0 0 0 7.058 2.194c2.306-7.426 2.856-13.612 2.416-18.994h13.064c-.726 5.479-2.821 12.505-6.95 21.747a3.695 3.695 0 1 0 6.749 3.016c4.584-10.264 6.89-18.284 7.619-24.764h38.65l33.254 66.508H9.674l33.254-66.506zm82.326 73.898c-1.717 8.422-9.18 14.78-18.101 14.78s-16.384-6.358-18.101-14.78h36.202zm81.662 29.559H7.39v-29.559h74.194c1.803 12.512 12.567 22.169 25.569 22.169s23.766-9.658 25.569-22.169h74.194v29.559z"/><path d="M170.568 113.773l3.474 6.52-34.236 18.245-3.475-6.52zm-24.424 32.126l-3.305-6.61 21.388-10.694 3.305 6.61z"/></g></svg>