<svg xmlns="http://www.w3.org/2000/svg" viewBox="0 0 512 512"><path d="M502.037 95.195l2.353-1.729c8.305-6.104 10.089-17.785 3.984-26.09-6.104-8.307-17.785-10.09-26.09-3.984l-2.353 1.729a18.62 18.62 0 0 0-4.179 4.271c-18.597-19.002-42.721-31.44-69.47-35.541-32.656-5.003-65.303 3.002-91.929 22.552l-110.1 80.824c-18.851-3.235-39.906-4.952-61.677-4.952-34.81 0-68.079 4.387-93.152 12.356C8.816 157.535 0 176.495 0 190.128v66.005c0 13.633 8.816 32.593 49.426 45.495 16.724 5.315 36.983 9.026 58.938 10.915-34.853 12.782-42.425 30.357-42.425 43.204v66.004c0 13.633 8.662 32.593 49.271 45.496 25.072 7.967 58.12 12.355 92.928 12.355s67.522-4.387 92.595-12.355c40.609-12.903 48.868-31.862 48.868-45.496v-66.004c0-4.769-.751-10.191-3.846-15.777l114.819-84.177c50.126-36.8 64.498-104.528 36.031-157.86 1.875-.599 3.76-1.507 5.432-2.738zm-359.459 74.407c5.93 0 11.615.133 17.06.379l-.159.117c-.02.015-.036.031-.056.046-.153.111-.307.216-.459.328-14.645 10.751-26.498 24.287-35.041 39.719-47.545-2.371-76.142-13.42-84.369-20.064 9.261-7.472 44.27-20.525 103.024-20.525zm-34.352 105.48c-41.958-4.042-65.925-14.864-70.902-20.51V231.34c3.732 1.486 7.809 2.921 12.102 4.285 17.25 5.482 38.388 9.269 61.143 11.098-.301 1.565-.509 3.136-.751 4.721-1.221 7.965-1.897 15.87-1.592 23.638zm99.982 60.137c58.754 0 93.763 13.053 103.024 20.527-9.253 7.472-44.259 20.528-103.024 20.528s-93.772-13.056-103.024-20.528c9.261-7.473 44.27-20.527 103.024-20.527zm104.07 84.972c-4.977 7.029-41.409 22.087-104.507 22.087s-98.287-15.059-104.507-22.087v-23.232a176.607 176.607 0 0 0 11.947 4.285c25.072 7.967 58.12 12.356 92.928 12.356s67.522-4.387 92.595-12.356c4.292-1.364 9.056-2.799 11.544-4.285v23.232zm5.275-136.907a86.005 86.005 0 0 1-10.053 29.164 161.349 161.349 0 0 0-6.435-2.198c-25.072-7.967-58.05-12.355-92.86-12.355-19.731 0-38.87 1.412-56.318 4.084-5.488-13.795-7.513-29.17-5.105-44.878 3.497-22.806 15.666-42.887 34.266-56.541 14.983-10.999 32.691-16.767 50.934-16.767 4.404 0 8.842.337 13.277 1.016 47.081 7.218 79.51 51.395 72.292 98.476h.002zm121.084-57.578l-83.967 61.639c9.296-66.317-36.172-128.221-102.245-139.179l84.015-61.674c18.591-13.651 41.382-19.243 64.185-15.746 22.798 3.497 42.87 15.662 56.52 34.256 28.176 38.379 19.872 92.527-18.508 120.704z"/><circle cx="182.166" cy="266.158" r="14.137"/><circle cx="219.851" cy="223.136" r="14.137"/><circle cx="282.419" cy="287.943" r="14.137"/><circle cx="270.425" cy="237.269" r="14.137"/><circle cx="228.846" cy="273.81" r="14.137"/></svg>