<svg xmlns="http://www.w3.org/2000/svg" viewBox="0 0 167.254 167.254" width="512" height="512"><path d="M167.244 111.457a3.904 3.904 0 0 0-.069-.682c-.006-.029-.014-.057-.021-.085a4.03 4.03 0 0 0-.182-.588 6.17 6.17 0 0 0-.077-.188c-.018-.04-.031-.082-.05-.121L155.16 85.95c3.59-1.442 6.134-4.951 6.134-9.049V30.666c0-5.623-4.575-10.197-10.198-10.197a10.12 10.12 0 0 0-7.421 3.202C134.32 12.933 107.971 7.228 82.888 7.228c-24.49 0-50.188 5.439-60.096 15.69a10.069 10.069 0 0 0-4.775-2.283 10.496 10.496 0 0 0-1.858-.167c-5.623 0-10.198 4.574-10.198 10.197V76.9c0 4.098 2.544 7.608 6.134 9.049L.409 109.792c-.02.04-.032.081-.05.122-.028.062-.052.124-.077.187a4.017 4.017 0 0 0-.182.587c-.007.03-.015.058-.021.088a4.001 4.001 0 0 0-.069.681c-.001.033-.01.063-.01.096v30.639a4 4 0 0 0 4 4h10.782v9.834a4 4 0 0 0 4 4H35.85a4 4 0 0 0 4-4v-9.834h89v9.834a4 4 0 0 0 4 4h17.069a4 4 0 0 0 4-4v-9.834h9.334a4 4 0 0 0 4-4v-30.639c.001-.033-.008-.063-.009-.096zM93.488 45.673a4.155 4.155 0 0 1 4.15-4.151h31.31a4.155 4.155 0 0 1 4.15 4.151v18.204a4.155 4.155 0 0 1-4.15 4.15h-31.31a4.155 4.155 0 0 1-4.15-4.15V45.673zm-59.334 0a4.156 4.156 0 0 1 4.151-4.151h31.31a4.155 4.155 0 0 1 4.15 4.151v18.204a4.155 4.155 0 0 1-4.15 4.15h-31.31a4.155 4.155 0 0 1-4.151-4.15V45.673zm-23.738 61.88L28.39 70.877c2.203 3.11 5.822 5.15 9.915 5.15h31.31c4.502 0 8.431-2.466 10.53-6.113h6.964c2.099 3.647 6.028 6.113 10.53 6.113h31.31c4.093 0 7.712-2.04 9.915-5.151l17.975 36.676H10.416z" data-original="#000000" class="active-path" data-old_color="#ffffff" fill="#fff"/></svg>