<svg xmlns="http://www.w3.org/2000/svg" width="512" height="512" viewBox="0 0 262.687 262.687"><path d="M183.334 261.164c-16.847-3.229-44.25-10.549-44.25-25.375.216-1.231-3.596-30.963-3.596-58.802s20.229-48.984 31.231-57.693c11.025-8.696 41.652-33.764 41.083-67.527C207.257 18.015 187.563 0 187.563 0s-39.068 2.905-56.217 2.905c-17.144 0-56.2-2.905-56.2-2.905S55.441 18.015 54.884 51.778c-.558 33.764 30.063 58.82 41.084 67.528 11.002 8.697 31.23 29.842 31.23 57.693 0 27.85-3.787 57.582-3.596 58.813 0 14.826-27.53 22.122-44.366 25.363-3.648.756-2.556 1.511.012 1.511h104.086c2.556-.011 3.625-.754 0-1.522zM75.274 65.03c-3.898-23.058 8.058-50.786 8.058-50.786s-2.19 31.858 3.009 48.589c5.2 16.725 26.676 49.786 26.676 49.786S78.249 83.997 75.274 65.03z" data-original="#000000" class="active-path" data-old_color="#ffffff" fill="#fff"/></svg>