<svg xmlns="http://www.w3.org/2000/svg" viewBox="0 0 488 488" width="512" height="512"><path d="M244 0C109.2 0 0 109.2 0 244s109.2 244 244 244 244-109.2 244-244S378.8 0 244 0zm104.9 290.5h-58.5V349c0 25.7-20.8 46.5-46.5 46.5s-46.5-20.8-46.5-46.5v-58.5h-58.5c-25.7 0-46.5-20.8-46.5-46.5s20.8-46.5 46.5-46.5h58.5V139c0-25.7 20.8-46.5 46.5-46.5s46.5 20.8 46.5 46.5v58.5h58.5c25.7 0 46.5 20.8 46.5 46.5s-20.8 46.5-46.5 46.5z" data-original="#000000" class="active-path" data-old_color="#ffffff" fill="#fff"/></svg>