<svg xmlns="http://www.w3.org/2000/svg" height="1471.738" width="2471.392"><path opacity=".98" fill="#f60" d="M0 0h2471.392v1471.738H0z"/><path d="M2002.017 1026.124c0 11.647-4.438 23.247-13.245 32.149-55.835 55.823-130.017 86.552-208.898 86.552-78.882 0-153.076-30.73-208.899-86.552-17.755-17.756-17.755-46.496 0-64.251 17.755-17.755 46.543-17.755 64.298 0 38.636 38.636 90.008 59.895 144.6 59.895 54.58 0 106.012-21.26 144.695-59.895 17.756-17.755 46.508-17.755 64.216 0 8.925 8.854 13.233 20.502 13.233 32.102zm96.454 96.447c0 11.648-4.498 23.248-13.305 32.102-81.486 81.58-189.96 126.513-305.346 126.513-115.434 0-223.86-44.933-305.298-126.513-17.756-17.755-17.756-46.543 0-64.251 17.755-17.708 46.543-17.755 64.298.047 64.298 64.345 149.856 99.809 240.953 99.809 91.132 0 176.702-35.464 241.035-99.81 17.661-17.755 46.46-17.755 64.216-.046 8.996 8.854 13.447 20.502 13.447 32.15zm96.47 96.448c0 11.647-4.51 23.295-13.304 32.149-107.385 107.337-250.138 166.427-401.84 166.427-151.845 0-294.504-59.09-401.746-166.427-17.756-17.756-17.756-46.496 0-64.251 17.755-17.756 46.542-17.756 64.298 0 90.055 90.103 209.987 139.818 337.447 139.818 127.46 0 247.345-49.668 337.543-139.77 17.755-17.756 46.495-17.756 64.25 0 8.843 8.758 13.353 20.453 13.353 32.054zm-637.283-780.113c0-11.647 4.44-23.247 13.246-32.149 55.835-55.823 130.017-86.552 208.898-86.552 78.882 0 153.076 30.73 208.899 86.552 17.755 17.756 17.755 46.496 0 64.251-17.756 17.756-46.543 17.756-64.299 0-38.635-38.636-90.008-59.895-144.6-59.895-54.58 0-106.011 21.26-144.694 59.895-17.756 17.756-46.508 17.756-64.216 0-8.925-8.854-13.234-20.501-13.234-32.102zm-96.453-96.447c0-11.648 4.498-23.248 13.305-32.102 81.485-81.58 189.96-126.513 305.346-126.513 115.433 0 223.86 44.933 305.298 126.513 17.756 17.755 17.756 46.543 0 64.251-17.755 17.708-46.543 17.755-64.298-.046-64.298-64.346-149.856-99.809-240.953-99.809-91.133 0-176.702 35.463-241.036 99.81-17.66 17.754-46.46 17.754-64.215.045-8.996-8.854-13.447-20.502-13.447-32.15zm-96.471-96.448c0-11.647 4.51-23.295 13.305-32.149 107.384-107.337 250.138-166.427 401.84-166.427 151.845 0 294.504 59.09 401.746 166.427 17.756 17.756 17.756 46.496 0 64.251-17.755 17.756-46.543 17.756-64.298 0-90.055-90.103-209.987-139.818-337.448-139.818-127.46 0-247.344 49.668-337.542 139.77-17.755 17.756-46.496 17.756-64.25 0-8.843-8.758-13.353-20.453-13.353-32.054zm230.268 486.638c0-101.938 82.945-184.843 184.829-184.843 101.884 0 184.843 82.905 184.843 184.843 0 101.94-82.904 184.83-184.843 184.83s-184.83-82.89-184.83-184.83zm-1511.675.249c0 147.145 49.32 250.587 193.69 250.587 112.44 0 163.113-73.607 177.05-148.566 5.547-29.159-11.84-40.93-44.449-40.93-27.805.676-43.027 8.997-49.32 29.834-11.77 41.675-28.413 77.734-83.28 77.734-86.055.676-98.57-93.7-98.57-168.66 0-75.703 11.095-169.403 98.57-169.403 53.446 0 71.51 27.062 81.928 77.057 5.547 24.964 22.867 30.512 49.251 29.835 24.288 0 46.546-11.771 44.448-33.285-8.998-87.475-59.67-154.858-171.433-154.858-147.213 0-197.885 102.765-197.885 250.655zm648.387 50.672h-98.57l33.285-101.344c9.066-27.806 11.84-38.9 15.966-66.639 4.195 27.738 6.968 38.833 15.966 66.639zm-125.631 81.184h152.693l27.06 83.348c9.743 29.159 29.16 32.609 52.094 32.609 22.866 0 51.348-4.195 41.674-32.609L735.841 517.693c-8.321-25.031-30.511-34.706-53.446-34.706-22.867 0-45.124 9.675-53.446 34.706l-143.695 430.41c-9.674 28.414 18.74 32.608 41.674 32.608 22.935 0 42.351-3.45 52.026-32.609zm434.535 27.06c-7.644 0-11.095-2.029-11.095-11.77V515.595c0-24.964-23.61-31.932-46.545-31.932-22.867 0-45.801 6.968-45.801 31.932v398.477c0 52.77 32.609 61.767 68.059 61.767h172.853c22.867 0 29.159-20.837 29.159-41.674 0-20.77-6.292-42.351-29.159-42.351zm325.547 0c-7.577 0-11.095-2.029-11.095-11.77V515.595c0-24.964-23.611-31.932-46.478-31.932-22.934 0-45.8 6.968-45.8 31.932v398.477c0 52.77 32.608 61.767 67.99 61.767h172.854c22.934 0 29.159-20.837 29.159-41.674 0-20.77-6.225-42.351-29.159-42.351zm762.247-381.766c-9.742-18.063-27.06-22.934-49.251-22.934-22.258 0-47.899 6.968-47.899 31.932v430.41c0 25.707 22.867 32.608 45.057 32.608 22.258 0 45.125-6.9 45.125-32.609v-287.39c9.742 24.287 22.258 48.575 31.932 65.285l136.795 231.847c10.418 17.32 27.061 22.867 49.251 22.867 22.258 0 48.643-6.9 48.643-32.609V519.046c0-24.964-22.935-31.932-45.125-31.932-22.258 0-45.124 6.968-45.124 31.932v285.361c-9.742-23.61-22.258-45.869-32.677-62.511z" fill="#fffffc"/></svg>