<svg xmlns="http://www.w3.org/2000/svg" viewBox="0 0 512.001 512.001" width="512" height="512"><path d="M509.618 404.733l-85.514-148.121c-2.302-3.987-8.06-3.847-10.229.213-24.796 46.415-68.181 78.769-118.101 90.055-3.825.865-5.7 5.207-3.74 8.603l75.727 131.163c7.476 12.949 26.64 11.149 31.661-2.842l23.488-65.441 68.417 12.37c14.649 2.646 25.738-13.101 18.291-26zm-293.391-57.852a178.428 178.428 0 0 1-118.101-90.055c-2.169-4.061-7.927-4.2-10.229-.214L2.382 404.733c-7.441 12.888 3.632 28.647 18.289 26l68.417-12.37 23.488 65.441c5.021 13.986 24.184 15.794 31.661 2.842l75.727-131.163c1.962-3.397.088-7.738-3.737-8.602z" data-original="#000000" class="active-path" data-old_color="#ffffff" fill="#fff"/><path d="M400.821 229.56v-.001c18.976-47.929 12.966-102.055-16.077-144.789-61.779-90.907-195.719-90.882-257.477-.009-29.048 42.743-35.063 96.872-16.088 144.799 51.968 131.231 237.92 130.617 289.642 0zm-59.23-61.227l-30.086 29.325 7.102 41.409c2.47 14.403-12.702 25.159-25.42 18.469L256 237.986l-37.188 19.551c-12.825 6.743-27.871-4.177-25.42-18.469l7.102-41.409-30.086-29.325c-10.376-10.116-4.639-27.798 9.709-29.882l41.577-6.042 18.593-37.675c6.413-12.996 25.004-13.003 31.421 0l18.593 37.675 41.577 6.042c14.343 2.082 20.095 19.76 9.713 29.881z" data-original="#000000" class="active-path" data-old_color="#ffffff" fill="#fff"/></svg>