<svg id="Слой_1" xmlns="http://www.w3.org/2000/svg" viewBox="0 0 122 133"><style>.st0,.st1{fill:#fff;stroke:#020203;stroke-miterlimit:10}.st1{fill:none}</style><path class="st0" d="M65.5 132h-56c-5.2 0-9.5-4.3-9.5-9.5V9.5C0 4.3 4.3 0 9.5 0h56C70.7 0 75 4.3 75 9.5v113c0 5.2-4.3 9.5-9.5 9.5z"/><path class="st0" d="M6.8 14h63v104h-63zm40.8-4H28.9c-.4 0-.7-.3-.7-.7V7.7c0-.4.3-.7.7-.7h18.7c.4 0 .7.3.7.7v1.7c0 .3-.3.6-.7.6zm-3.2 118H31.6c-.3 0-.6-.3-.6-.6v-3.8c0-.3.3-.6.6-.6h12.8c.3 0 .6.3.6.6v3.8c0 .3-.3.6-.6.6z"/><path class="st1" d="M88.3 65.5c2.8-5 2.7-11.2-.3-16.1m-7.6 11.2c.2-2 0-4.1-.6-6m4.9 8.7c1.2-3.7.9-7.7-.7-11.3"/><circle class="st1" cx="109.9" cy="57.8" r="11.2"/><circle class="st1" cx="110" cy="57.8" r="9.6"/><path class="st1" d="M121.1 57.7a16 16 0 0 0-.5-3.9c-.6-3-2.1-5.9-3.8-7.3-4.2-3.2-2.1-11.2-4.2-13.3-.3-.3-4.4-.4-4.8 0-2.1 2-.9 9.4-4.2 12.7-1.6 1.6-4.1 5.5-4.7 9.6h.2c-.1.8-.1 1.5-.1 2.2 0 .9.1 1.8.2 2.7h-.3c.4 3.6 2 7.5 4.1 9.1 4.2 3.2 2.1 11.2 4.2 13.3.3.3 4.4.4 4.8 0 2.1-2 .9-9.4 4.2-12.7 1.6-1.6 4.2-5.5 4.7-9.7.1-.9.2-1.8.2-2.7z"/></svg>